<!DOCTYPE svg PUBLIC "-//W3C//DTD SVG 1.1//EN" "http://www.w3.org/Graphics/SVG/1.1/DTD/svg11.dtd">
<!-- Uploaded to: SVG Repo, www.svgrepo.com, Transformed by: SVG Repo Mixer Tools -->
<svg height="800px" width="800px" version="1.1" id="Layer_1" xmlns="http://www.w3.org/2000/svg" xmlns:xlink="http://www.w3.org/1999/xlink" viewBox="0 0 496.2 496.2" xml:space="preserve" fill="#000000">
<g id="SVGRepo_bgCarrier" stroke-width="0"/>
<g id="SVGRepo_tracerCarrier" stroke-linecap="round" stroke-linejoin="round"/>
<g id="SVGRepo_iconCarrier"> <path style="fill:#3d4afa;" d="M496.2,248.1C496.2,111.1,385.1,0,248.1,0S0,111.1,0,248.1s111.1,248.1,248.1,248.1 S496.2,385.1,496.2,248.1z"/> <path style="fill:#48A1AF;" d="M276.4,74.1c0,1.8-1.5,3.3-3.3,3.3h-49.8c-1.8,0-3.3-1.5-3.3-3.3v-4.6c0-1.8,1.5-3.3,3.3-3.3h49.8 c1.8,0,3.3,1.5,3.3,3.3V74.1z"/> <path style="fill:#E3EBEE;" d="M305.2,166.9c0-40.1-30.4-72.3-30.4-72.3c-3-5.2-2.2-41.3-2.2-41.3h-49c0,0,0.7,36.1-2.2,41.3 c0,0-30.4,32.3-30.4,72.3c0,0,0.3,7.3,1.9,17.8c1,6.6,4.8,14.6,4.8,23c0,8.5-4.8,17.3-4.8,25.6c0,14.6,0,27.3,0,32.6 c0,16,5.2,60.5,5.2,70.5s-5.2,20-5.2,32.6s0,54.9,0,54.9s2.6,24.9,55.3,24.9l0,0l0,0l0,0l0,0c52.7,0,55.3-24.9,55.3-24.9 s0-42.3,0-54.9s-5.2-22.6-5.2-32.6s5.2-54.5,5.2-70.5c0-5.3,0-18,0-32.6c0-8.3-4.8-17.1-4.8-25.6c0-8.4,3.8-16.4,4.8-23 C305,174.2,305.2,166.9,305.2,166.9z"/> <path style="fill:#F7FBFC;" d="M248.1,53.2h-24.5c0,0,0.7,36.1-2.2,41.3c0,0-30.4,32.3-30.4,72.3c0,0,0.3,7.3,1.9,17.8 c1,6.6,4.8,14.6,4.8,23c0,8.5-4.8,17.3-4.8,25.6v32.6c0,16,5.2,60.5,5.2,70.5s-5.2,20-5.2,32.6s0,54.9,0,54.9s2.6,24.9,55.3,24.9 l0,0L248.1,53.2z"/> <path style="fill:#AAD6E1;" d="M191.5,173.6c0.3,2.9,0.7,6.7,1.4,11c1,6.6,4.8,14.6,4.8,23c0,8.5-4.8,17.3-4.8,25.6 c0,14.6,0,27.3,0,32.6c0,16,5.2,60.5,5.2,70.5s-5.2,20-5.2,32.6s0,54.9,0,54.9s2.6,24.9,55.3,24.9l0,0l0,0l0,0l0,0 c52.7,0,55.3-24.9,55.3-24.9s0-42.3,0-54.9s-5.2-22.6-5.2-32.6s5.2-54.5,5.2-70.5c0-5.3,0-18,0-32.6c0-8.3-4.8-17.1-4.8-25.6 c0-8.4,3.8-16.4,4.8-23c0.7-4.5,1.1-8.5,1.4-11.5c0,0-28.9-2.9-57.7-2.8C219,170.4,191.5,173.6,191.5,173.6z"/> <path style="fill:#48A1AF;" d="M278.5,80.8c0,2-1.6,3.5-3.5,3.5h-53.6c-2,0-3.5-1.6-3.5-3.5v-5c0-2,1.6-3.5,3.5-3.5H275 c2,0,3.5,1.6,3.5,3.5V80.8z"/> <path style="fill:#5CB6BF;" d="M248.1,84.3h-26.7c-2,0-3.5-1.6-3.5-3.5v-5c0-2,1.6-3.5,3.5-3.5h26.7V84.3z"/> <path style="fill:#ABD6D6;" d="M274.7,94.3c-0.4-0.8-0.7-2.1-1-3.9h-51.3c-0.3,1.6-0.6,2.9-0.9,3.8v0.1H274.7z"/> <path style="fill:#BFE2E1;" d="M248.1,90.4h-25.6c-0.3,1.6-0.6,2.9-0.9,3.8v0.1h26.5V90.4z"/> <path style="fill:#48A1AF;" d="M280.1,83.3c0,0.6-0.5,1-1,1h-61.9c-0.6,0-1-0.5-1-1v-1.4c0-0.6,0.5-1,1-1h61.9c0.6,0,1,0.5,1,1V83.3 z"/> <path style="fill:#5CB6BF;" d="M248.1,80.8h-30.9c-0.6,0-1,0.5-1,1v1.4c0,0.6,0.5,1,1,1h30.9V80.8z"/> <path style="fill:#48A1AF;" d="M268.5,47.4h-40.7c-11.1,0-10,8.2-10,8.2s0,11.5,0,12.8s0.4,1.7,1.7,1.7c1.4,0,55.6,0,57.1,0 s1.9-0.7,1.9-1.8s0-12.6,0-12.6S279.6,47.4,268.5,47.4z"/> <path style="fill:#5CB6BF;" d="M248.1,47.4h-20.2c-11.1,0-10,8.2-10,8.2s0,11.5,0,12.8s0.4,1.7,1.7,1.7c0.7,0,14.6,0,28.5,0V47.4z"/> <path style="fill:#B9E4EA;" d="M247.1,170.3c-28.1,0.1-55.7,3.3-55.7,3.3c0.3,2.9,0.7,6.7,1.4,11c1,6.6,4.8,14.6,4.8,23 c0,8.5-4.8,17.3-4.8,25.6v32.6c0,16,5.2,60.5,5.2,70.5s-5.2,20-5.2,32.6s0,54.9,0,54.9s2.9,24.9,55.3,24.9L247.1,170.3z"/> </g>
</svg>