<svg width="712" height="621" viewBox="0 0 712 621" fill="none" xmlns="http://www.w3.org/2000/svg">
<path d="M356 621C552.175 621 711.206 611.751 711.206 600.342C711.206 588.932 552.175 579.683 356 579.683C159.825 579.683 0.793457 588.932 0.793457 600.342C0.793457 611.751 159.825 621 356 621Z" fill="#F5F5F5"/>
<path opacity="0.1" d="M149.534 456.115C149.754 454.47 150.598 452.973 151.893 451.931C153.188 450.888 154.836 450.381 156.495 450.512C172.177 450.275 186.852 461.316 200.463 473.16C203.486 475.769 206.765 478.47 210.155 475.733C211.203 474.869 211.969 473.712 212.353 472.411C212.939 470.285 212.939 468.041 212.353 465.915C211.849 464.159 211.009 462.517 209.88 461.078C203.962 453.322 196.763 449.599 190.919 441.588C187.645 436.998 184.933 432.035 182.84 426.806C181.008 422.207 177.344 414.779 178.809 408.556C180.44 401.11 186.027 401.749 189.416 402.771C200.134 405.965 210.136 413.575 219.223 423.046C228.914 433.12 237.69 445.256 246.428 457.319C249.726 461.9 253.207 466.608 257.42 468.269C261.634 469.93 266.965 467.247 268.742 460.64C270.519 454.034 268.431 446.442 267.991 439.872C267.403 432.033 267.784 424.15 269.127 416.403C269.722 412.308 271.109 408.366 273.212 404.797C277.939 397.898 284.937 400.325 289.517 405.545C293.013 409.911 295.716 414.852 297.504 420.144C302.644 434.768 305.726 450.029 306.664 465.495C307.361 475.076 308.826 485.058 312.783 492.486C319.177 504.494 331.103 503.545 340.355 497.249C356.458 486.299 368.879 461.553 372.195 433.886C373.276 424.871 373.551 415.126 376.848 407.57C379.725 401.037 387.108 396.621 390.717 403.665C392.17 407.187 392.577 411.051 391.889 414.797C391.242 418.507 390.33 422.167 389.159 425.747C387.327 431.952 385.495 443.577 390.442 447.209C391.179 447.655 392.006 447.935 392.863 448.03C393.721 448.124 394.589 448.031 395.407 447.756C411.601 444.398 426.66 429.215 436.553 408.027C440.138 400.053 442.876 391.729 444.724 383.189C445.915 377.97 446.409 372.367 447.728 367.184C448.574 363.105 450.285 359.253 452.748 355.887C459.05 348.369 473.596 351.909 474.421 368.024C474.915 377.349 472.424 386.474 471.508 395.599C470.94 401.293 474.476 401.256 477.114 401.074C489.754 399.796 500.93 387.094 510.841 373.882C522.621 358.169 535.664 337.766 551.749 337.163C555.413 337.036 561.514 337.51 563.712 343.149C564.731 346.605 564.731 350.279 563.712 353.734C560.451 367.202 550.888 374.155 543.56 380.817C522.9 400.121 504.728 421.907 489.461 445.676C487.135 449.326 484.735 455.348 486.952 458.925C487.376 459.606 487.996 460.144 488.731 460.469C489.466 460.795 490.282 460.892 491.074 460.75C498.64 460.166 505.73 454.18 512.636 449.216C519.543 444.252 527.384 439.909 534.62 443.65C536.851 444.984 538.795 446.744 540.339 448.831C541.883 450.917 542.996 453.287 543.615 455.804C544.909 460.216 545.116 464.873 544.22 469.382C541.563 481.774 530.077 487.34 523.756 493.453C515.053 501.817 507.085 510.908 499.94 520.627C493.345 529.624 487.116 539.479 480.521 548.312C456.705 579.938 423.729 584.629 394.417 588.297C362.522 592.275 330.554 590.122 298.842 585.943C275.777 582.877 253.042 576.343 230.526 568.587C222.795 565.795 215.119 562.747 207.535 559.134C199.382 555.265 187.383 552.874 184.25 537.636C183.591 534.351 184.36 531.686 186.54 530.464C193.3 526.631 202.937 531.759 209.294 535.135C218.069 539.807 226.386 546.469 235.4 550.064C236.848 550.773 238.427 551.182 240.039 551.267C241.651 551.352 243.264 551.11 244.779 550.556C246.266 549.935 247.489 548.819 248.242 547.399C249.2 545.548 249.435 543.409 248.901 541.395C248.53 540.308 247.902 539.325 247.069 538.53C230.846 521.966 211.462 508.8 190.058 499.804C183.188 496.866 176.171 494.457 169.558 490.296C164.212 487.003 159.598 482.656 156.001 477.521C152.923 472.612 147.977 463.944 149.534 456.115Z" fill="#407BFF"/>
<path opacity="0.1" d="M499.94 321.961C498.716 323.225 497.112 324.057 495.371 324.331C493.63 324.606 491.846 324.309 490.29 323.484C488.734 322.659 487.489 321.352 486.745 319.761C486 318.169 485.796 316.379 486.164 314.661C492.484 284.093 506.224 261.865 522.566 273.399C534.767 281.994 515.641 305.701 499.94 321.961Z" fill="#407BFF"/>
<path opacity="0.3" d="M455.606 336.233C460.604 333.485 464.84 329.546 467.938 324.77C471.036 319.993 472.898 314.526 473.358 308.858L485.742 158.572C486.384 150.847 485.398 143.073 482.845 135.75C480.293 128.427 476.231 121.717 470.921 116.051L432.761 75.3357C430.661 73.0844 429.054 70.4228 428.042 67.5199C427.029 64.6171 426.634 61.5363 426.88 58.473L428.712 36.464L329.949 28.3794L328.117 50.3884C327.864 53.4506 326.973 56.4265 325.499 59.1258C324.026 61.8252 322.004 64.1886 319.561 66.0649L275.227 100.064C269.064 104.796 263.961 110.757 260.244 117.567C256.528 124.377 254.281 131.886 253.646 139.611L241.243 289.897C240.774 295.557 241.718 301.246 243.991 306.455C246.264 311.664 249.794 316.233 254.269 319.753C249.271 322.5 245.035 326.438 241.941 331.215C238.846 335.993 236.988 341.46 236.535 347.128L220.725 538.749C219.98 547.859 222.896 556.891 228.831 563.862C234.767 570.832 243.237 575.17 252.382 575.923L415.43 589.264C419.958 589.636 424.515 589.116 428.841 587.734C433.167 586.351 437.178 584.133 440.643 581.207C444.109 578.28 446.961 574.702 449.038 570.676C451.115 566.651 452.376 562.258 452.748 557.747L468.558 366.126C469.042 360.465 468.112 354.774 465.852 349.558C463.592 344.342 460.072 339.765 455.606 336.233Z" fill="#407BFF"/>
<path opacity="0.3" d="M329.977 28.4129L328.576 45.3826L427.318 53.4694L428.718 36.4997L329.977 28.4129Z" fill="#407BFF"/>
<path opacity="0.3" d="M470.005 119.974L431.845 79.2228C431.845 79.2228 407.241 80.2813 426.349 110.338C442.635 135.76 471.013 131.8 470.005 119.974Z" fill="white"/>
<path opacity="0.2" d="M220.743 538.676C219.998 547.786 222.914 556.818 228.85 563.789C234.785 570.759 243.256 575.097 252.4 575.85L415.448 589.191C419.976 589.563 424.533 589.043 428.859 587.661C433.186 586.278 437.196 584.06 440.662 581.134C444.127 578.207 446.98 574.629 449.057 570.603C451.134 566.578 452.394 562.184 452.766 557.674L220.743 538.676Z" fill="#407BFF"/>
<path opacity="0.3" d="M462.879 123.497C467.14 128.049 470.401 133.437 472.451 139.317C474.502 145.197 475.297 151.438 474.787 157.642L462.402 307.946C462.08 311.809 460.805 315.534 458.689 318.788C456.573 322.042 453.682 324.724 450.275 326.597L435.857 334.554L448.772 344.755C451.828 347.155 454.24 350.27 455.794 353.824C457.348 357.377 457.994 361.259 457.676 365.122L441.866 556.743C441.357 562.953 438.395 568.708 433.631 572.745C428.868 576.782 422.691 578.772 416.456 578.278L253.408 564.937C250.312 564.693 247.294 563.843 244.527 562.437C241.761 561.031 239.299 559.096 237.283 556.742C235.267 554.388 233.736 551.661 232.778 548.718C231.82 545.775 231.453 542.673 231.699 539.588L247.509 347.967C247.825 344.102 249.096 340.374 251.208 337.116C253.321 333.859 256.211 331.173 259.618 329.298L274.036 321.341L261.212 311.139C258.156 308.74 255.744 305.625 254.191 302.071C252.637 298.517 251.991 294.636 252.309 290.773L264.711 140.487C265.226 134.283 267.035 128.254 270.022 122.786C273.009 117.318 277.11 112.531 282.06 108.733C296.716 99.2975 335.188 122.785 380.237 126.471C425.286 130.158 453.462 118.77 462.879 123.497Z" fill="#407BFF"/>
<path opacity="0.2" d="M380.146 126.489C335.115 122.84 296.606 99.2975 281.95 108.733C307.598 122.785 336.91 131.49 379.431 134.976C421.952 138.461 462.879 123.497 462.879 123.497C453.462 118.77 425.176 130.194 380.146 126.489Z" fill="#407BFF"/>
<path opacity="0.2" d="M241.262 289.897C240.793 295.557 241.737 301.246 244.009 306.455C246.282 311.664 249.813 316.233 254.287 319.753L455.606 336.178C460.604 333.43 464.84 329.492 467.938 324.715C471.036 319.938 472.898 314.472 473.358 308.803L241.262 289.897Z" fill="#407BFF"/>
<path d="M430.783 9.58465L332.317 1.49544C328.193 1.15662 324.576 4.21258 324.238 8.32112L322.274 32.1846C321.936 36.2932 325.005 39.8985 329.13 40.2373L427.595 48.3265C431.719 48.6653 435.337 45.6093 435.675 41.5008L437.638 17.6373C437.976 13.5288 434.907 9.92346 430.783 9.58465Z" fill="#407BFF"/>
<path opacity="0.2" d="M334.126 36.5552C334.005 36.546 333.888 36.5131 333.78 36.4586C333.673 36.404 333.577 36.3287 333.499 36.2371C333.42 36.1455 333.361 36.0394 333.324 35.9249C333.287 35.8103 333.273 35.6896 333.283 35.5697L335.591 6.69878C335.611 6.45678 335.726 6.23237 335.912 6.07494C336.097 5.91751 336.338 5.83994 336.581 5.8593C336.824 5.87866 337.049 5.99336 337.207 6.17817C337.365 6.36299 337.443 6.60278 337.423 6.84478L335.042 35.6975C335.028 35.9299 334.925 36.1481 334.755 36.3076C334.585 36.467 334.36 36.5556 334.126 36.5552Z" fill="white"/>
<path opacity="0.2" d="M351.988 38.0152C351.867 38.006 351.75 37.9731 351.642 37.9185C351.535 37.8639 351.439 37.7887 351.361 37.6971C351.282 37.6055 351.223 37.4994 351.186 37.3848C351.149 37.2703 351.135 37.1496 351.145 37.0297L353.527 8.177C353.55 7.93654 353.666 7.71451 353.851 7.55785C354.035 7.4012 354.274 7.32218 354.516 7.33751C354.636 7.34661 354.752 7.37955 354.859 7.43437C354.966 7.4892 355.06 7.56479 355.137 7.65667C355.214 7.74856 355.272 7.85488 355.307 7.96933C355.342 8.08378 355.353 8.20404 355.34 8.32299L352.904 37.1757C352.881 37.4033 352.776 37.6147 352.607 37.7695C352.438 37.9243 352.217 38.0118 351.988 38.0152Z" fill="white"/>
<path opacity="0.2" d="M369.831 39.5481C369.711 39.5389 369.594 39.5061 369.486 39.4515C369.378 39.3969 369.283 39.3216 369.204 39.23C369.126 39.1384 369.067 39.0323 369.03 38.9178C368.993 38.8032 368.979 38.6826 368.989 38.5626L371.37 9.70996C371.398 9.47127 371.515 9.25189 371.699 9.09608C371.883 8.94028 372.119 8.85965 372.36 8.87047C372.48 8.87968 372.598 8.91253 372.705 8.96712C372.813 9.02171 372.908 9.09697 372.987 9.18856C373.065 9.28016 373.125 9.38628 373.162 9.50082C373.199 9.61535 373.212 9.73605 373.202 9.85595L370.821 38.7086C370.812 38.8286 370.779 38.9456 370.724 39.0528C370.669 39.16 370.593 39.2554 370.501 39.3334C370.41 39.4114 370.303 39.4706 370.188 39.5074C370.073 39.5443 369.952 39.5581 369.831 39.5481Z" fill="white"/>
<path opacity="0.2" d="M387.694 40.9351C387.573 40.9259 387.456 40.8931 387.348 40.8385C387.24 40.7839 387.145 40.7086 387.066 40.617C386.988 40.5254 386.929 40.4193 386.892 40.3048C386.855 40.1902 386.841 40.0695 386.851 39.9496L389.232 11.0969C389.256 10.8565 389.372 10.6345 389.557 10.4778C389.741 10.3211 389.98 10.2421 390.222 10.2575C390.341 10.2666 390.458 10.2995 390.565 10.3543C390.672 10.4091 390.766 10.4847 390.843 10.5766C390.92 10.6685 390.977 10.7748 391.012 10.8893C391.047 11.0037 391.059 11.124 391.046 11.2429L388.664 40.0956C388.658 40.2148 388.627 40.3314 388.574 40.4385C388.521 40.5456 388.447 40.6411 388.357 40.7193C388.266 40.7976 388.161 40.857 388.047 40.894C387.933 40.9311 387.813 40.945 387.694 40.9351Z" fill="white"/>
<path opacity="0.2" d="M405.464 42.3951C405.343 42.3859 405.226 42.353 405.118 42.2984C405.011 42.2438 404.915 42.1686 404.837 42.077C404.758 41.9854 404.699 41.8793 404.662 41.7647C404.625 41.6502 404.611 41.5295 404.621 41.4096L407.003 12.5569C407.034 12.3199 407.153 12.103 407.336 11.948C407.518 11.793 407.752 11.7108 407.992 11.7174C408.113 11.7266 408.23 11.7595 408.338 11.8141C408.445 11.8686 408.541 11.9439 408.619 12.0355C408.698 12.1271 408.757 12.2332 408.794 12.3477C408.831 12.4623 408.845 12.583 408.835 12.7029L406.453 41.5556C406.446 41.6764 406.415 41.7946 406.361 41.9031C406.307 42.0115 406.231 42.1079 406.139 42.1864C406.046 42.2649 405.939 42.3238 405.823 42.3597C405.707 42.3956 405.585 42.4076 405.464 42.3951Z" fill="white"/>
<path opacity="0.2" d="M423.399 43.855C423.279 43.8458 423.161 43.813 423.054 43.7584C422.946 43.7038 422.85 43.6285 422.772 43.5369C422.694 43.4454 422.634 43.3392 422.597 43.2247C422.56 43.1102 422.546 42.9895 422.556 42.8696L424.865 13.9986C424.888 13.7582 425.004 13.5361 425.189 13.3795C425.373 13.2228 425.612 13.1438 425.854 13.1591C426.094 13.1823 426.315 13.2987 426.469 13.4832C426.624 13.6677 426.699 13.9053 426.678 14.1446L424.315 43.0156C424.293 43.2431 424.187 43.4545 424.018 43.6094C423.849 43.7642 423.629 43.8517 423.399 43.855Z" fill="white"/>
<path opacity="0.2" d="M271.728 239.692C268.943 224.344 246.501 225.439 245.219 240.969L241.188 289.897C240.719 295.557 241.663 301.246 243.936 306.455C246.209 311.664 249.739 316.233 254.214 319.753C249.216 322.5 244.98 326.438 241.886 331.215C238.791 335.992 236.933 341.46 236.48 347.128L220.67 538.749C219.925 547.859 222.841 556.891 228.776 563.862C234.712 570.832 243.183 575.17 252.327 575.923L294.463 579.373C299.105 579.751 303.773 579.062 308.105 577.358C312.437 575.654 316.318 572.981 319.448 569.545C322.579 566.109 324.874 562.003 326.158 557.543C327.442 553.083 327.68 548.388 326.853 543.822L271.728 239.692Z" fill="#407BFF"/>
<path opacity="0.3" d="M433.86 490.606C433.569 494.124 432.238 497.477 430.034 500.241C427.831 503.005 424.854 505.056 421.481 506.135C418.107 507.214 414.488 507.273 411.081 506.303C407.674 505.334 404.633 503.379 402.34 500.688C400.048 497.996 398.609 494.688 398.204 491.182C397.799 487.675 398.447 484.128 400.065 480.988C401.684 477.848 404.201 475.257 407.297 473.542C410.394 471.827 413.932 471.065 417.463 471.353C422.199 471.744 426.586 473.99 429.66 477.6C432.735 481.21 434.245 485.888 433.86 490.606Z" fill="#407BFF"/>
<path opacity="0.3" d="M376.903 421.495C376.699 423.985 375.758 426.358 374.2 428.315C372.641 430.272 370.535 431.725 368.148 432.49C365.761 433.254 363.199 433.296 360.788 432.611C358.377 431.925 356.224 430.543 354.601 428.638C352.979 426.733 351.96 424.392 351.673 421.91C351.387 419.428 351.845 416.918 352.991 414.696C354.137 412.474 355.919 410.641 358.111 409.427C360.303 408.214 362.807 407.676 365.306 407.881C368.654 408.16 371.755 409.749 373.928 412.301C376.102 414.853 377.172 418.159 376.903 421.495Z" fill="#407BFF"/>
<path opacity="0.3" d="M323.903 267.669C321.4 267.785 318.918 267.159 316.771 265.871C314.625 264.582 312.91 262.689 311.843 260.43C310.776 258.171 310.405 255.648 310.777 253.179C311.149 250.71 312.247 248.407 313.933 246.559C315.618 244.712 317.816 243.404 320.247 242.8C322.679 242.196 325.236 242.324 327.595 243.167C329.954 244.01 332.009 245.531 333.501 247.537C334.992 249.543 335.854 251.944 335.976 254.438C336.057 256.097 335.809 257.755 335.246 259.318C334.683 260.882 333.816 262.319 332.695 263.548C331.573 264.777 330.22 265.774 328.711 266.481C327.202 267.188 325.569 267.591 323.903 267.669Z" fill="#407BFF"/>
<path opacity="0.3" d="M358.473 192.17C356.698 192.258 354.937 191.82 353.413 190.911C351.888 190.001 350.669 188.662 349.909 187.062C349.15 185.461 348.884 183.673 349.146 181.922C349.407 180.171 350.185 178.537 351.379 177.227C352.574 175.916 354.132 174.989 355.856 174.561C357.581 174.134 359.394 174.225 361.066 174.825C362.737 175.425 364.193 176.505 365.248 177.929C366.303 179.354 366.91 181.058 366.992 182.826C367.101 185.189 366.267 187.5 364.67 189.251C363.073 191.002 360.845 192.052 358.473 192.17Z" fill="#407BFF"/>
<path opacity="0.3" d="M414.093 366.91C414.006 367.938 413.616 368.917 412.971 369.724C412.326 370.531 411.455 371.129 410.469 371.444C409.482 371.758 408.425 371.774 407.429 371.49C406.434 371.206 405.545 370.635 404.875 369.848C404.205 369.062 403.785 368.095 403.666 367.07C403.548 366.045 403.737 365.009 404.21 364.091C404.682 363.173 405.417 362.415 406.322 361.914C407.227 361.412 408.261 361.188 409.293 361.271C410.679 361.387 411.962 362.046 412.862 363.103C413.762 364.16 414.204 365.529 414.093 366.91Z" fill="#407BFF"/>
<path opacity="0.7" d="M319.195 509.696H318.316C316.913 509.6 315.543 509.228 314.285 508.601C313.027 507.975 311.907 507.106 310.988 506.046C310.084 504.989 309.4 503.764 308.975 502.442C308.551 501.12 308.394 499.727 308.515 498.344C308.685 496.3 309.45 494.349 310.715 492.73C311.98 491.111 313.691 489.893 315.639 489.227C317.587 488.56 319.688 488.473 321.685 488.976C323.682 489.479 325.488 490.55 326.884 492.058C328.28 493.567 329.205 495.448 329.546 497.471C329.887 499.495 329.629 501.573 328.804 503.453C327.979 505.333 326.623 506.933 324.9 508.058C323.177 509.182 321.163 509.783 319.103 509.787L319.195 509.696ZM319.195 489.913C317.112 489.923 315.094 490.641 313.475 491.947C311.856 493.254 310.732 495.071 310.29 497.099C309.847 499.128 310.112 501.245 311.04 503.104C311.969 504.962 313.505 506.449 315.396 507.32C317.288 508.191 319.421 508.394 321.443 507.895C323.465 507.396 325.257 506.225 326.521 504.575C327.786 502.925 328.448 500.895 328.398 498.82C328.348 496.745 327.59 494.749 326.248 493.161C325.466 492.238 324.508 491.479 323.43 490.928C322.351 490.376 321.173 490.044 319.965 489.949L319.195 489.913Z" fill="white"/>
<path opacity="0.7" d="M432.504 296.138H431.863C429.828 295.971 427.943 295.006 426.621 293.457C425.299 291.907 424.648 289.898 424.81 287.871C424.978 285.841 425.948 283.96 427.508 282.643C429.068 281.325 431.089 280.678 433.127 280.845C435.162 281.012 437.047 281.977 438.369 283.526C439.691 285.076 440.342 287.085 440.18 289.112C440.006 291.142 439.039 293.023 437.487 294.35C436.092 295.516 434.326 296.15 432.504 296.138ZM426.184 287.944C426.093 289.185 426.372 290.425 426.986 291.509C427.6 292.592 428.522 293.471 429.635 294.034C430.749 294.598 432.005 294.821 433.245 294.676C434.486 294.531 435.656 294.023 436.608 293.218C437.243 292.682 437.767 292.026 438.148 291.288C438.528 290.549 438.759 289.744 438.828 288.917C438.896 288.089 438.799 287.257 438.544 286.467C438.289 285.677 437.88 284.945 437.341 284.312C436.781 283.698 436.104 283.2 435.349 282.849C434.594 282.498 433.776 282.301 432.944 282.268C432.115 282.198 431.28 282.292 430.487 282.545C429.695 282.797 428.96 283.202 428.325 283.738C427.69 284.274 427.168 284.929 426.788 285.667C426.408 286.404 426.177 287.209 426.11 288.035L426.184 287.944Z" fill="white"/>
<path opacity="0.7" d="M314.139 134.336H313.864C312.918 134.243 312.045 133.788 311.43 133.066C310.814 132.344 310.505 131.413 310.566 130.468C310.613 129.758 310.866 129.077 311.296 128.509C311.726 127.94 312.313 127.51 312.985 127.27C313.658 127.029 314.386 126.99 315.08 127.157C315.774 127.323 316.405 127.688 316.894 128.207C317.383 128.725 317.709 129.375 317.832 130.076C317.955 130.776 317.87 131.498 317.587 132.151C317.304 132.804 316.835 133.361 316.239 133.752C315.643 134.144 314.944 134.353 314.23 134.354L314.139 134.336ZM311.922 130.577C311.887 131.012 311.983 131.447 312.196 131.828C312.41 132.208 312.731 132.518 313.121 132.717C313.511 132.915 313.951 132.995 314.386 132.945C314.82 132.895 315.231 132.718 315.565 132.436C315.899 132.154 316.142 131.78 316.262 131.361C316.383 130.942 316.377 130.496 316.244 130.081C316.111 129.665 315.857 129.298 315.515 129.026C315.173 128.754 314.758 128.589 314.322 128.552C314.03 128.524 313.736 128.555 313.456 128.642C313.177 128.73 312.917 128.872 312.694 129.061C312.47 129.25 312.287 129.481 312.154 129.741C312.022 130.002 311.943 130.286 311.922 130.577Z" fill="white"/>
<path opacity="0.7" d="M395.15 228.852H394.38C393.174 228.757 391.999 228.426 390.922 227.877C389.845 227.328 388.888 226.571 388.107 225.652C387.325 224.732 386.733 223.667 386.367 222.519C386.001 221.37 385.866 220.161 385.971 218.96C386.128 217.198 386.795 215.519 387.892 214.128C388.988 212.737 390.467 211.693 392.149 211.124C393.83 210.555 395.641 210.485 397.362 210.922C399.082 211.36 400.638 212.286 401.84 213.589C403.042 214.891 403.837 216.513 404.13 218.258C404.423 220.003 404.201 221.795 403.49 223.416C402.779 225.037 401.611 226.417 400.127 227.389C398.643 228.36 396.907 228.881 395.131 228.888L395.15 228.852ZM395.15 211.88C393.306 211.871 391.52 212.518 390.112 213.704C388.53 215.038 387.542 216.94 387.364 218.997C387.26 220.273 387.474 221.555 387.986 222.729C388.499 223.903 389.293 224.933 390.3 225.729C391.307 226.524 392.495 227.06 393.759 227.29C395.023 227.519 396.325 227.435 397.549 227.044C398.772 226.653 399.88 225.968 400.775 225.05C401.67 224.131 402.324 223.007 402.679 221.776C403.034 220.546 403.08 219.248 402.811 217.996C402.543 216.744 401.969 215.577 401.14 214.599C400.477 213.816 399.665 213.172 398.749 212.705C397.834 212.238 396.835 211.958 395.809 211.88H395.15Z" fill="white"/>
<path opacity="0.3" d="M470.298 308.639L482.133 165.325C482.208 164.409 482.101 163.488 481.819 162.613C481.536 161.739 481.084 160.928 480.486 160.228C479.889 159.528 479.159 158.952 478.338 158.534C477.518 158.115 476.622 157.861 475.703 157.788C474.784 157.71 473.86 157.814 472.982 158.093C472.104 158.373 471.291 158.822 470.588 159.416C469.885 160.009 469.306 160.735 468.886 161.552C468.465 162.369 468.21 163.26 468.137 164.175L456.302 307.489C455.917 312.254 454.351 316.848 451.745 320.861C449.14 324.874 445.575 328.181 441.371 330.484L434.171 334.481L440.638 339.572C444.407 342.53 447.383 346.371 449.301 350.753C451.219 355.134 452.019 359.92 451.63 364.684L435.82 556.305C434.867 567.802 427.613 573.405 417.408 577.876C416.761 578.165 416.228 578.66 415.893 579.283C415.559 579.906 415.441 580.622 415.558 581.319C415.675 582.016 416.021 582.654 416.542 583.134C417.062 583.614 417.728 583.909 418.434 583.972C426.125 584.597 433.751 582.156 439.635 577.184C445.52 572.212 449.182 565.115 449.817 557.455L465.627 365.834C466.019 361.069 465.22 356.282 463.302 351.9C461.384 347.518 458.406 343.678 454.635 340.722L448.168 335.612L455.367 331.634C459.568 329.327 463.13 326.019 465.736 322.007C468.341 317.994 469.908 313.402 470.298 308.639Z" fill="white"/>
<path opacity="0.3" d="M660.46 531.358C658.482 522.415 633.786 527.708 628.675 528.529C618.744 530.324 609.021 533.119 599.656 536.869C589.342 540.902 577.361 546.833 566.68 540.702C560.506 537.161 581.941 530.172 583.883 529.46C592.992 526.272 601.787 522.252 610.153 517.452C613.543 515.444 620.101 510.644 617.28 505.772C614.935 501.739 606.526 502.122 601.415 502.742C585.927 504.632 570.734 508.426 556.183 514.039C542.031 519.639 528.175 525.956 514.669 532.964C509.437 535.904 503.746 537.946 497.833 539.004C491.385 539.917 483.489 538.548 480.942 534.99C478.396 531.431 481.675 527.27 482.426 523.693C483.489 519.416 483.043 514.906 481.162 510.918C479.915 508.246 477.824 506.053 475.208 504.677C468.228 501.027 457.676 502.377 450.659 505.261C446.113 507.179 441.958 509.913 438.403 513.327C431.242 519.966 426.219 528.572 423.967 538.055C423.4 541.026 422.251 543.855 420.585 546.382C418.919 548.909 416.768 551.084 414.258 552.783C404.438 559.371 386.448 558.988 372.69 555.685C348.672 550.009 330.352 536.741 325.937 521.759C323.793 514.623 322.749 507.159 313.113 504.367C306.884 502.542 293.84 503.819 296.625 511.666C297.636 513.817 298.956 515.809 300.545 517.579C303.092 520.919 305.803 527.215 298.237 529.241C295.787 529.759 293.27 529.882 290.781 529.606C266.452 527.982 244.065 519.897 229.555 508.509C224.824 504.807 220.813 500.273 217.721 495.132C215.999 492.304 215.376 489.256 213.489 486.464C211.686 483.776 209.141 481.666 206.161 480.387C196.818 476.39 174.87 478.47 173.331 487.23C172.507 491.975 175.475 497.121 176.995 501.629C177.268 502.198 177.333 502.843 177.179 503.454C176.739 504.604 174.998 504.932 173.515 505.024C153.894 506.319 134.859 498.727 118.39 490.807C100.949 482.412 81.7496 471.481 57.5123 471.353C52.5006 471.125 47.4846 471.698 42.6548 473.05C41.432 473.375 40.2944 473.961 39.3205 474.766C38.7283 475.38 38.3348 476.157 38.1911 476.996C38.0474 477.836 38.16 478.699 38.5144 479.474C39.3011 481.081 40.4711 482.472 41.922 483.525C49.25 489.475 59.5091 491.884 68.8707 494.95C96.646 503.918 123.502 515.498 149.076 529.533C151.659 530.975 156.239 534.314 152.611 536.833C148.984 539.351 141.619 537.727 137.278 537.015C129.4 535.738 121.834 533.694 114.158 531.778C104.008 529.223 92.1737 526.905 81.1817 529.022C75.3743 530.135 70.1897 532.508 67.46 535.719C66.5193 536.659 65.8998 537.87 65.6893 539.181C65.4788 540.491 65.6881 541.834 66.2876 543.019C70.0615 549.717 87.264 552.6 96.6621 555.794C108.695 559.885 120.461 564.719 131.891 570.266C141.656 575.084 150.724 580.358 160.617 585.085C195.957 601.966 245.311 604.137 289.443 605.78C337.35 607.605 385.477 606.054 433.255 603.407C468.063 601.473 502.23 597.659 536.342 593.169C546.143 591.892 555.89 590.322 565.654 588.99C575.566 587.858 585.369 585.923 594.966 583.205C598.414 582.329 601.632 580.723 604.401 578.497C607.021 576.069 607.845 572.894 603.155 571.982C593.336 570.029 583.223 572.255 573.623 573.989C562.851 575.96 552.177 578.229 541.6 580.796C536.778 582.077 531.884 583.071 526.944 583.771C521.978 584.465 516.922 584.143 512.086 582.822C510.511 582.329 508.789 581.453 508.697 580.066C508.606 578.679 509.925 577.803 511.28 577.274C531.048 569.463 552.042 564.499 573.184 559.937C587.528 556.834 602.129 554.936 616.584 552.509C629.756 550.301 643.642 549.79 655.056 541.468C657.327 540.007 659.093 537.886 660.112 535.391C660.607 534.106 660.728 532.708 660.46 531.358Z" fill="#407BFF"/>
<path opacity="0.3" d="M93.5659 457.465C88.1982 442.263 69.0721 415.345 65.0417 431.24C62.8799 440.164 93.5659 457.465 93.5659 457.465Z" fill="#407BFF"/>
<path opacity="0.3" d="M573.88 487.393C584.102 478.105 596.853 472.576 598.502 480.751C600.041 488.488 573.88 487.393 573.88 487.393Z" fill="#407BFF"/>
<path opacity="0.3" d="M154.48 413.519C147.482 409.869 142.022 404.012 146.126 401.566C150.23 399.121 154.48 413.519 154.48 413.519Z" fill="#407BFF"/>
</svg>
