<svg width="804" height="477" viewBox="0 0 804 477" fill="none" xmlns="http://www.w3.org/2000/svg">
<path d="M27.9539 464.149C27.7267 466.908 26.6864 469.538 24.9646 471.706C23.2429 473.874 20.9169 475.483 18.2807 476.33C15.6446 477.176 12.8166 477.222 10.1545 476.461C7.49227 475.701 5.11536 474.168 3.32424 472.057C1.53313 469.946 0.408238 467.351 0.0917692 464.6C-0.2247 461.85 0.281475 459.067 1.5463 456.604C2.81112 454.142 4.7778 452.109 7.19769 450.764C9.61758 449.419 12.382 448.821 15.1415 449.047C18.8422 449.353 22.2701 451.115 24.6723 453.947C27.0746 456.779 28.2548 460.448 27.9539 464.149Z" fill="#C6D7FF"/>
<path d="M31.9703 154.739C31.8243 156.512 31.1556 158.203 30.0487 159.597C28.9418 160.991 27.4466 162.025 25.7519 162.569C24.0572 163.113 22.2393 163.143 20.5279 162.654C18.8165 162.165 17.2884 161.179 16.137 159.822C14.9856 158.465 14.2624 156.797 14.059 155.029C13.8556 153.261 14.1809 151.472 14.994 149.889C15.8071 148.305 17.0714 146.999 18.6271 146.134C20.1827 145.269 21.9599 144.885 23.7338 145.03C26.1129 145.227 28.3165 146.36 29.8608 148.18C31.4051 150.001 32.1638 152.359 31.9703 154.739Z" fill="#ECF2FF"/>
<path opacity="0.7" d="M47.1573 308.87H45.9139C43.9303 308.734 41.9933 308.206 40.2149 307.317C38.4365 306.427 36.8519 305.194 35.5526 303.689C34.2746 302.189 33.3073 300.451 32.707 298.574C32.1067 296.697 31.8853 294.72 32.0557 292.756C32.2972 289.854 33.3783 287.084 35.1672 284.786C36.9561 282.488 39.3753 280.76 42.1296 279.814C44.8838 278.867 47.854 278.744 50.6774 279.457C53.5008 280.171 56.0554 281.692 58.0293 283.833C60.0032 285.975 61.311 288.645 61.7931 291.517C62.2752 294.389 61.9106 297.34 60.744 300.009C59.5774 302.678 57.6592 304.949 55.2235 306.545C52.7878 308.142 49.94 308.995 47.0278 309L47.1573 308.87ZM47.1573 280.788C44.2113 280.802 41.3583 281.821 39.0691 283.676C36.7799 285.53 35.1914 288.11 34.5656 290.989C33.9398 293.868 34.3141 296.875 35.6269 299.513C36.9396 302.15 39.1123 304.262 41.7863 305.498C44.4604 306.735 47.4761 307.023 50.3357 306.314C53.1953 305.606 55.728 303.943 57.5158 301.601C59.3036 299.259 60.2396 296.378 60.1695 293.432C60.0994 290.487 59.0272 287.653 57.13 285.399C56.0244 284.089 54.6698 283.011 53.1447 282.228C51.6195 281.446 49.9542 280.973 48.2452 280.839L47.1573 280.788Z" fill="#9EBBFF"/>
<path d="M397.954 141.149C397.727 143.908 396.686 146.538 394.965 148.706C393.243 150.874 390.917 152.483 388.281 153.33C385.645 154.176 382.817 154.222 380.154 153.461C377.492 152.701 375.115 151.168 373.324 149.057C371.533 146.946 370.408 144.351 370.092 141.6C369.775 138.85 370.281 136.067 371.546 133.604C372.811 131.142 374.778 129.109 377.198 127.764C379.618 126.419 382.382 125.821 385.141 126.047C388.842 126.353 392.27 128.115 394.672 130.947C397.075 133.779 398.255 137.448 397.954 141.149Z" fill="#ECF2FF"/>
<path opacity="0.7" d="M608.262 49.784H606.19C602.884 49.5569 599.655 48.6769 596.691 47.1946C593.727 45.7124 591.086 43.6574 588.921 41.1484C586.791 38.649 585.179 35.7511 584.178 32.623C583.178 29.495 582.809 26.1992 583.093 22.9274C583.495 18.0897 585.297 13.4738 588.279 9.64325C591.26 5.81266 595.292 2.93312 599.883 1.35606C604.473 -0.221009 609.423 -0.427301 614.129 0.762309C618.835 1.95192 623.092 4.48597 626.382 8.05517C629.672 11.6244 631.852 16.0742 632.655 20.8616C633.459 25.649 632.851 30.5669 630.907 35.0148C628.962 39.4626 625.765 43.2481 621.706 45.9091C617.646 48.5701 612.9 49.9917 608.046 50L608.262 49.784ZM608.262 2.97918C603.352 3.00356 598.597 4.70145 594.782 7.79256C590.967 10.8837 588.319 15.1833 587.276 19.9819C586.233 24.7806 586.857 29.7915 589.045 34.1878C591.233 38.584 594.854 42.103 599.311 44.1638C603.767 46.2247 608.793 46.7042 613.56 45.5234C618.326 44.3427 622.547 41.5721 625.526 37.669C628.506 33.7658 630.066 28.9633 629.949 24.054C629.832 19.1446 628.045 14.4217 624.883 10.6648C623.041 8.4811 620.783 6.68489 618.241 5.3804C615.699 4.07591 612.924 3.28905 610.075 3.06549L608.262 2.97918Z" fill="#C6D7FF"/>
<path d="M632.954 260.149C632.727 262.908 631.686 265.538 629.965 267.706C628.243 269.874 625.917 271.483 623.281 272.33C620.645 273.176 617.817 273.222 615.154 272.461C612.492 271.701 610.115 270.168 608.324 268.057C606.533 265.946 605.408 263.351 605.092 260.6C604.775 257.85 605.281 255.067 606.546 252.604C607.811 250.142 609.778 248.109 612.198 246.764C614.618 245.419 617.382 244.821 620.141 245.047C623.842 245.353 627.27 247.115 629.672 249.947C632.075 252.779 633.255 256.448 632.954 260.149Z" fill="#C6D7FF"/>
<path opacity="0.7" d="M782.231 184.81H780.407C777.498 184.61 774.657 183.836 772.048 182.531C769.44 181.227 767.116 179.419 765.211 177.211C763.336 175.011 761.917 172.461 761.037 169.708C760.156 166.956 759.832 164.055 760.082 161.176C760.436 156.919 762.022 152.857 764.645 149.486C767.269 146.115 770.817 143.581 774.857 142.193C778.896 140.806 783.252 140.624 787.394 141.671C791.535 142.718 795.281 144.948 798.176 148.089C801.071 151.229 802.989 155.145 803.697 159.358C804.404 163.571 803.869 167.899 802.158 171.813C800.447 175.727 797.633 179.058 794.061 181.4C790.489 183.742 786.312 184.993 782.041 185L782.231 184.81ZM782.231 143.622C777.91 143.643 773.725 145.137 770.368 147.857C767.011 150.578 764.681 154.361 763.763 158.584C762.845 162.807 763.394 167.217 765.319 171.085C767.245 174.954 770.431 178.051 774.353 179.864C778.275 181.678 782.698 182.1 786.892 181.061C791.086 180.022 794.801 177.583 797.423 174.149C800.045 170.714 801.418 166.488 801.315 162.168C801.212 157.847 799.64 153.691 796.857 150.385C795.236 148.463 793.249 146.883 791.012 145.735C788.775 144.587 786.333 143.894 783.826 143.698L782.231 143.622Z" fill="#9EBBFF"/>
</svg>