<svg width="768" height="1280" viewBox="0 0 768 1280" fill="none" xmlns="http://www.w3.org/2000/svg" xmlns:xlink="http://www.w3.org/1999/xlink">
	<defs>
		<clipPath id="clip115_2038">
			<rect id="Frame 17" width="768.000000" height="1280.000000" fill="white" fill-opacity="0"/>
		</clipPath>
	</defs>
	<g clip-path="url(#clip115_2038)">
		<g opacity="0.700000">
			<path id="Vector" d="M47.19 664.83L45.62 664.83C43.11 664.66 40.65 663.99 38.4 662.86C36.15 661.74 34.14 660.18 32.5 658.27C30.88 656.37 29.65 654.17 28.89 651.79C28.13 649.41 27.85 646.91 28.07 644.42C28.37 640.74 29.74 637.24 32.01 634.32C34.27 631.41 37.34 629.22 40.83 628.03C44.31 626.83 48.08 626.67 51.65 627.57C55.23 628.48 58.47 630.4 60.97 633.12C63.47 635.83 65.12 639.21 65.73 642.85C66.34 646.49 65.88 650.23 64.4 653.61C62.93 656.99 60.5 659.86 57.41 661.89C54.33 663.91 50.72 664.99 47.03 665L47.19 664.83ZM47.19 629.26C43.46 629.28 39.85 630.57 36.95 632.92C34.05 635.27 32.04 638.53 31.24 642.18C30.45 645.83 30.93 649.64 32.59 652.98C34.25 656.32 37 658.99 40.39 660.56C43.78 662.13 47.6 662.49 51.22 661.59C54.84 660.7 58.05 658.59 60.32 655.62C62.58 652.66 63.77 649.01 63.68 645.28C63.59 641.55 62.23 637.96 59.83 635.1C58.43 633.44 56.71 632.08 54.78 631.08C52.85 630.09 50.74 629.5 48.57 629.33L47.19 629.26Z" fill="#C6D7FF" fill-opacity="1.000000" fill-rule="nonzero"/>
		</g>
		<path id="Vector" d="M27.95 464.14C27.72 466.9 26.68 469.53 24.96 471.7C23.24 473.87 20.91 475.48 18.28 476.33C15.64 477.17 12.81 477.22 10.15 476.46C7.49 475.7 5.11 474.16 3.32 472.05C1.53 469.94 0.4 467.35 0.09 464.6C-0.23 461.85 0.28 459.06 1.54 456.6C2.81 454.14 4.77 452.1 7.19 450.76C9.61 449.41 12.38 448.82 15.14 449.04C18.84 449.35 22.27 451.11 24.67 453.94C27.07 456.77 28.25 460.44 27.95 464.14Z" fill="#C6D7FF" fill-opacity="1.000000" fill-rule="nonzero"/>
		<path id="Vector" d="M31.97 154.73C31.82 156.51 31.15 158.2 30.04 159.59C28.94 160.99 27.44 162.02 25.75 162.56C24.05 163.11 22.23 163.14 20.52 162.65C18.81 162.16 17.28 161.17 16.13 159.82C14.98 158.46 14.26 156.79 14.05 155.02C13.85 153.26 14.18 151.47 14.99 149.88C15.8 148.3 17.07 146.99 18.62 146.13C20.18 145.26 21.96 144.88 23.73 145.03C26.11 145.22 28.31 146.36 29.86 148.17C31.4 150 32.16 152.35 31.97 154.73Z" fill="#ECF2FF" fill-opacity="1.000000" fill-rule="nonzero"/>
		<g opacity="0.700000">
			<path id="Vector" d="M47.15 308.87L45.91 308.87C43.93 308.73 41.99 308.2 40.21 307.31C38.43 306.42 36.85 305.19 35.55 303.68C34.27 302.18 33.3 300.45 32.7 298.57C32.1 296.69 31.88 294.72 32.05 292.75C32.29 289.85 33.37 287.08 35.16 284.78C36.95 282.48 39.37 280.76 42.12 279.81C44.88 278.86 47.85 278.74 50.67 279.45C53.5 280.17 56.05 281.69 58.02 283.83C60 285.97 61.31 288.64 61.79 291.51C62.27 294.38 61.91 297.34 60.74 300C59.57 302.67 57.65 304.94 55.22 306.54C52.78 308.14 49.93 308.99 47.02 309L47.15 308.87ZM47.15 280.78C44.21 280.8 41.35 281.82 39.06 283.67C36.78 285.53 35.19 288.1 34.56 290.98C33.93 293.86 34.31 296.87 35.62 299.51C36.93 302.15 39.11 304.26 41.78 305.49C44.46 306.73 47.47 307.02 50.33 306.31C53.19 305.6 55.72 303.94 57.51 301.6C59.3 299.25 60.23 296.37 60.16 293.43C60.09 290.48 59.02 287.65 57.12 285.39C56.02 284.08 54.66 283.01 53.14 282.22C51.61 281.44 49.95 280.97 48.24 280.83L47.15 280.78Z" fill="#9EBBFF" fill-opacity="1.000000" fill-rule="nonzero"/>
		</g>
		<path id="Vector" d="M397.95 141.14C397.72 143.9 396.68 146.53 394.96 148.7C393.24 150.87 390.91 152.48 388.28 153.33C385.64 154.17 382.81 154.22 380.15 153.46C377.49 152.7 375.11 151.16 373.32 149.05C371.53 146.94 370.4 144.35 370.09 141.6C369.77 138.85 370.28 136.06 371.54 133.6C372.81 131.14 374.77 129.1 377.19 127.76C379.61 126.41 382.38 125.82 385.14 126.04C388.84 126.35 392.27 128.11 394.67 130.94C397.07 133.77 398.25 137.44 397.95 141.14Z" fill="#ECF2FF" fill-opacity="1.000000" fill-rule="nonzero"/>
		<g opacity="0.700000">
			<path id="Vector" d="M608.26 49.78L606.19 49.78C602.88 49.55 599.65 48.67 596.69 47.19C593.72 45.71 591.08 43.65 588.92 41.14C586.79 38.64 585.17 35.75 584.17 32.62C583.17 29.49 582.8 26.19 583.09 22.92C583.49 18.08 585.29 13.47 588.27 9.64C591.26 5.81 595.29 2.93 599.88 1.35C604.47 -0.23 609.42 -0.43 614.12 0.76C618.83 1.95 623.09 4.48 626.38 8.05C629.67 11.62 631.85 16.07 632.65 20.86C633.45 25.64 632.85 30.56 630.9 35.01C628.96 39.46 625.76 43.24 621.7 45.9C617.64 48.57 612.9 49.99 608.04 50L608.26 49.78ZM608.26 2.97C603.35 3 598.59 4.7 594.78 7.79C590.96 10.88 588.31 15.18 587.27 19.98C586.23 24.78 586.85 29.79 589.04 34.18C591.23 38.58 594.85 42.1 599.31 44.16C603.76 46.22 608.79 46.7 613.56 45.52C618.32 44.34 622.54 41.57 625.52 37.66C628.5 33.76 630.06 28.96 629.94 24.05C629.83 19.14 628.04 14.42 624.88 10.66C623.04 8.48 620.78 6.68 618.24 5.38C615.69 4.07 612.92 3.28 610.07 3.06L608.26 2.97Z" fill="#C6D7FF" fill-opacity="1.000000" fill-rule="nonzero"/>
		</g>
		<g opacity="0.700000">
			<path id="Vector" d="M198.19 727.83L196.62 727.83C194.11 727.66 191.65 726.99 189.4 725.86C187.15 724.74 185.14 723.18 183.5 721.27C181.88 719.37 180.65 717.17 179.89 714.79C179.13 712.41 178.85 709.91 179.07 707.42C179.37 703.74 180.74 700.24 183.01 697.32C185.27 694.41 188.34 692.22 191.83 691.03C195.32 689.83 199.08 689.67 202.65 690.57C206.23 691.48 209.47 693.4 211.97 696.12C214.47 698.83 216.12 702.21 216.73 705.85C217.34 709.49 216.88 713.23 215.4 716.61C213.93 719.99 211.5 722.86 208.41 724.89C205.33 726.91 201.72 727.99 198.03 728L198.19 727.83ZM198.19 692.26C194.46 692.28 190.85 693.57 187.95 695.92C185.05 698.27 183.04 701.53 182.25 705.18C181.45 708.83 181.93 712.64 183.59 715.98C185.25 719.32 188 721.99 191.39 723.56C194.78 725.13 198.6 725.49 202.22 724.59C205.84 723.7 209.05 721.59 211.32 718.62C213.58 715.66 214.77 712.01 214.68 708.28C214.59 704.55 213.23 700.96 210.83 698.1C209.43 696.44 207.71 695.08 205.78 694.08C203.85 693.09 201.74 692.5 199.57 692.33L198.19 692.26Z" fill="#9EBBFF" fill-opacity="1.000000" fill-rule="nonzero"/>
		</g>
		<path id="Vector" d="M632.95 260.14C632.72 262.9 631.68 265.53 629.96 267.7C628.24 269.87 625.91 271.48 623.28 272.32C620.64 273.17 617.81 273.22 615.15 272.46C612.49 271.7 610.11 270.16 608.32 268.05C606.53 265.94 605.4 263.35 605.09 260.6C604.77 257.85 605.28 255.06 606.54 252.6C607.81 250.14 609.77 248.1 612.19 246.76C614.61 245.41 617.38 244.82 620.14 245.04C623.84 245.35 627.27 247.11 629.67 249.94C632.07 252.77 633.25 256.44 632.95 260.14Z" fill="#C6D7FF" fill-opacity="1.000000" fill-rule="nonzero"/>
		<g opacity="0.700000">
			<path id="Vector" d="M782.23 184.81L780.4 184.81C777.49 184.61 774.65 183.83 772.04 182.53C769.44 181.22 767.11 179.41 765.21 177.21C763.33 175.01 761.91 172.46 761.03 169.7C760.15 166.95 759.83 164.05 760.08 161.17C760.43 156.91 762.02 152.85 764.64 149.48C767.26 146.11 770.81 143.58 774.85 142.19C778.89 140.8 783.25 140.62 787.39 141.67C791.53 142.71 795.28 144.94 798.17 148.08C801.07 151.22 802.99 155.14 803.69 159.35C804.4 163.57 803.86 167.89 802.15 171.81C800.44 175.72 797.63 179.05 794.06 181.4C790.48 183.74 786.31 184.99 782.04 185L782.23 184.81ZM782.23 143.62C777.91 143.64 773.72 145.13 770.36 147.85C767.01 150.57 764.68 154.36 763.76 158.58C762.84 162.8 763.39 167.21 765.31 171.08C767.24 174.95 770.43 178.05 774.35 179.86C778.27 181.67 782.69 182.1 786.89 181.06C791.08 180.02 794.8 177.58 797.42 174.14C800.04 170.71 801.41 166.48 801.31 162.16C801.21 157.84 799.64 153.69 796.85 150.38C795.23 148.46 793.24 146.88 791.01 145.73C788.77 144.58 786.33 143.89 783.82 143.69L782.23 143.62Z" fill="#9EBBFF" fill-opacity="1.000000" fill-rule="nonzero"/>
		</g>
		<path id="Vector" d="M502.95 666.14C502.72 668.9 501.68 671.53 499.96 673.7C498.24 675.87 495.91 677.48 493.28 678.33C490.64 679.17 487.81 679.22 485.15 678.46C482.49 677.7 480.11 676.16 478.32 674.05C476.53 671.94 475.4 669.35 475.09 666.6C474.77 663.85 475.28 661.06 476.54 658.6C477.81 656.14 479.77 654.1 482.19 652.76C484.61 651.41 487.38 650.82 490.14 651.04C493.84 651.35 497.27 653.11 499.67 655.94C502.07 658.77 503.25 662.44 502.95 666.14Z" fill="#C6D7FF" fill-opacity="1.000000" fill-rule="nonzero"/>
		<g opacity="0.700000">
			<path id="Vector" d="M29.19 1259.84L27.62 1259.84C25.11 1259.66 22.65 1258.99 20.4 1257.87C18.15 1256.74 16.14 1255.18 14.5 1253.27C12.88 1251.37 11.65 1249.17 10.89 1246.79C10.13 1244.42 9.85 1241.91 10.07 1239.42C10.37 1235.75 11.74 1232.24 14.01 1229.32C16.27 1226.42 19.34 1224.23 22.83 1223.03C26.31 1221.82 30.08 1221.68 33.65 1222.57C37.23 1223.48 40.47 1225.41 42.97 1228.12C45.47 1230.82 47.12 1234.22 47.73 1237.85C48.34 1241.49 47.88 1245.23 46.4 1248.61C44.93 1251.99 42.5 1254.87 39.41 1256.89C36.33 1258.91 32.72 1259.99 29.03 1260L29.19 1259.84ZM29.19 1224.26C25.46 1224.28 21.85 1225.56 18.95 1227.92C16.05 1230.27 14.04 1233.54 13.24 1237.18C12.45 1240.82 12.93 1244.64 14.59 1247.98C16.25 1251.31 19 1254 22.39 1255.56C25.78 1257.13 29.6 1257.5 33.22 1256.6C36.84 1255.69 40.05 1253.59 42.32 1250.63C44.58 1247.66 45.77 1244.01 45.68 1240.28C45.59 1236.55 44.23 1232.96 41.83 1230.11C40.43 1228.44 38.71 1227.07 36.78 1226.09C34.85 1225.1 32.74 1224.5 30.57 1224.32L29.19 1224.26Z" fill="#C6D7FF" fill-opacity="1.000000" fill-rule="nonzero"/>
		</g>
		<path id="Vector" d="M9.95 1059.15C9.72 1061.91 8.68 1064.54 6.96 1066.71C5.24 1068.87 2.91 1070.48 0.28 1071.32C-2.36 1072.18 -5.19 1072.22 -7.85 1071.46C-10.51 1070.69 -12.89 1069.17 -14.68 1067.06C-16.47 1064.94 -17.6 1062.35 -17.91 1059.6C-18.23 1056.85 -17.72 1054.06 -16.46 1051.6C-15.19 1049.14 -13.23 1047.11 -10.81 1045.76C-8.39 1044.42 -5.62 1043.81 -2.86 1044.05C0.84 1044.35 4.27 1046.12 6.67 1048.94C9.07 1051.78 10.25 1055.44 9.95 1059.15Z" fill="#C6D7FF" fill-opacity="1.000000" fill-rule="nonzero"/>
		<path id="Vector" d="M13.97 749.73C13.82 751.51 13.15 753.2 12.04 754.59C10.94 755.99 9.44 757.02 7.75 757.56C6.05 758.11 4.23 758.14 2.52 757.65C0.81 757.16 -0.72 756.17 -1.87 754.82C-3.02 753.46 -3.74 751.79 -3.95 750.02C-4.15 748.26 -3.82 746.47 -3.01 744.88C-2.2 743.3 -0.93 741.99 0.62 741.13C2.18 740.26 3.95 739.88 5.73 740.03C8.11 740.22 10.31 741.36 11.86 743.18C13.4 745 14.16 747.35 13.97 749.73Z" fill="#ECF2FF" fill-opacity="1.000000" fill-rule="nonzero"/>
		<g opacity="0.700000">
			<path id="Vector" d="M29.15 903.87L27.91 903.87C25.93 903.73 23.99 903.2 22.21 902.31C20.43 901.42 18.85 900.19 17.55 898.68C16.27 897.18 15.3 895.45 14.7 893.57C14.1 891.69 13.88 889.72 14.05 887.75C14.29 884.85 15.37 882.08 17.16 879.78C18.95 877.48 21.37 875.76 24.12 874.81C26.88 873.86 29.85 873.74 32.67 874.45C35.5 875.17 38.05 876.69 40.02 878.83C42 880.97 43.31 883.64 43.79 886.51C44.27 889.38 43.91 892.34 42.74 895C41.57 897.67 39.65 899.94 37.22 901.54C34.78 903.14 31.93 903.99 29.02 904L29.15 903.87ZM29.15 875.78C26.21 875.8 23.35 876.82 21.06 878.67C18.78 880.53 17.19 883.11 16.56 885.98C15.93 888.86 16.31 891.87 17.62 894.51C18.93 897.15 21.11 899.26 23.78 900.49C26.46 901.73 29.47 902.02 32.33 901.31C35.19 900.6 37.72 898.94 39.51 896.6C41.3 894.25 42.23 891.37 42.16 888.43C42.09 885.48 41.02 882.65 39.12 880.39C38.02 879.08 36.66 878.01 35.14 877.22C33.61 876.44 31.95 875.97 30.24 875.83L29.15 875.78Z" fill="#9EBBFF" fill-opacity="1.000000" fill-rule="nonzero"/>
		</g>
		<path id="Vector" d="M379.95 736.14C379.72 738.9 378.68 741.53 376.96 743.7C375.24 745.87 372.91 747.48 370.28 748.33C367.64 749.17 364.81 749.22 362.15 748.46C359.49 747.7 357.11 746.16 355.32 744.05C353.53 741.94 352.4 739.35 352.09 736.6C351.77 733.85 352.28 731.06 353.54 728.6C354.81 726.14 356.77 724.1 359.19 722.76C361.61 721.41 364.38 720.82 367.14 721.04C370.84 721.35 374.27 723.11 376.67 725.94C379.07 728.77 380.25 732.44 379.95 736.14Z" fill="#ECF2FF" fill-opacity="1.000000" fill-rule="nonzero"/>
		<g opacity="0.700000">
			<path id="Vector" d="M590.26 644.78L588.19 644.78C584.88 644.55 581.65 643.67 578.69 642.19C575.72 640.71 573.08 638.65 570.92 636.14C568.79 633.64 567.17 630.75 566.17 627.62C565.17 624.49 564.8 621.19 565.09 617.92C565.49 613.09 567.29 608.47 570.27 604.64C573.26 600.81 577.29 597.93 581.88 596.35C586.47 594.77 591.42 594.57 596.12 595.76C600.83 596.95 605.09 599.48 608.38 603.05C611.67 606.62 613.85 611.07 614.65 615.86C615.45 620.64 614.85 625.56 612.9 630.01C610.96 634.46 607.76 638.24 603.7 640.9C599.64 643.57 594.9 644.99 590.04 645L590.26 644.78ZM590.26 597.97C585.35 598 580.59 599.7 576.78 602.79C572.96 605.88 570.31 610.18 569.27 614.98C568.23 619.78 568.85 624.79 571.04 629.18C573.23 633.58 576.85 637.1 581.31 639.16C585.76 641.22 590.79 641.7 595.56 640.52C600.32 639.34 604.54 636.57 607.52 632.66C610.5 628.76 612.06 623.96 611.94 619.05C611.83 614.14 610.04 609.42 606.88 605.66C605.04 603.48 602.78 601.68 600.24 600.38C597.69 599.07 594.92 598.28 592.07 598.06L590.26 597.97Z" fill="#C6D7FF" fill-opacity="1.000000" fill-rule="nonzero"/>
		</g>
		<g opacity="0.700000">
			<path id="Vector" d="M180.19 1322.84L178.62 1322.84C176.11 1322.66 173.65 1321.99 171.4 1320.87C169.15 1319.74 167.14 1318.18 165.5 1316.27C163.88 1314.37 162.65 1312.17 161.89 1309.79C161.13 1307.42 160.85 1304.91 161.07 1302.42C161.37 1298.75 162.74 1295.24 165.01 1292.32C167.27 1289.42 170.34 1287.23 173.83 1286.03C177.32 1284.82 181.08 1284.68 184.65 1285.57C188.23 1286.48 191.47 1288.41 193.97 1291.12C196.47 1293.82 198.12 1297.22 198.73 1300.85C199.34 1304.49 198.88 1308.23 197.4 1311.61C195.93 1314.99 193.5 1317.87 190.41 1319.89C187.33 1321.91 183.72 1322.99 180.03 1323L180.19 1322.84ZM180.19 1287.26C176.46 1287.28 172.85 1288.56 169.95 1290.92C167.05 1293.27 165.04 1296.54 164.25 1300.18C163.45 1303.82 163.93 1307.64 165.59 1310.98C167.25 1314.32 170 1317 173.39 1318.56C176.78 1320.13 180.6 1320.5 184.22 1319.6C187.84 1318.7 191.05 1316.59 193.32 1313.63C195.58 1310.66 196.77 1307.01 196.68 1303.28C196.59 1299.55 195.23 1295.96 192.83 1293.11C191.43 1291.44 189.71 1290.07 187.78 1289.09C185.85 1288.1 183.74 1287.5 181.57 1287.32L180.19 1287.26Z" fill="#9EBBFF" fill-opacity="1.000000" fill-rule="nonzero"/>
		</g>
		<path id="Vector" d="M614.95 855.14C614.72 857.9 613.68 860.53 611.96 862.7C610.24 864.87 607.91 866.48 605.28 867.33C602.64 868.17 599.81 868.22 597.15 867.46C594.49 866.7 592.11 865.16 590.32 863.05C588.53 860.94 587.4 858.35 587.09 855.6C586.77 852.85 587.28 850.06 588.54 847.6C589.81 845.14 591.77 843.1 594.19 841.76C596.61 840.41 599.38 839.82 602.14 840.04C605.84 840.35 609.27 842.11 611.67 844.94C614.07 847.77 615.25 851.44 614.95 855.14Z" fill="#C6D7FF" fill-opacity="1.000000" fill-rule="nonzero"/>
		<g opacity="0.700000">
			<path id="Vector" d="M764.23 780.81L762.4 780.81C759.49 780.61 756.65 779.83 754.04 778.53C751.44 777.22 749.11 775.41 747.21 773.21C745.33 771.01 743.91 768.46 743.03 765.7C742.15 762.95 741.83 760.05 742.08 757.17C742.43 752.91 744.02 748.85 746.64 745.48C749.26 742.11 752.81 739.58 756.85 738.19C760.89 736.8 765.25 736.62 769.39 737.67C773.53 738.71 777.28 740.94 780.17 744.08C783.07 747.22 784.99 751.14 785.69 755.35C786.4 759.57 785.86 763.89 784.15 767.81C782.44 771.72 779.63 775.05 776.06 777.4C772.48 779.74 768.31 780.99 764.04 781L764.23 780.81ZM764.23 739.62C759.91 739.64 755.72 741.13 752.36 743.85C749.01 746.57 746.68 750.36 745.76 754.58C744.84 758.8 745.39 763.21 747.31 767.08C749.24 770.95 752.43 774.05 756.35 775.86C760.27 777.67 764.69 778.1 768.89 777.06C773.08 776.02 776.8 773.58 779.42 770.14C782.04 766.71 783.41 762.48 783.31 758.16C783.21 753.84 781.64 749.69 778.85 746.38C777.23 744.46 775.24 742.88 773.01 741.73C770.77 740.58 768.33 739.89 765.82 739.69L764.23 739.62Z" fill="#9EBBFF" fill-opacity="1.000000" fill-rule="nonzero"/>
		</g>
		<path id="Vector" d="M484.95 1266.15C484.72 1268.91 483.68 1271.54 481.96 1273.71C480.24 1275.87 477.91 1277.48 475.28 1278.32C472.64 1279.18 469.81 1279.22 467.15 1278.46C464.49 1277.69 462.11 1276.17 460.32 1274.06C458.53 1271.94 457.4 1269.35 457.09 1266.6C456.77 1263.85 457.28 1261.06 458.54 1258.6C459.81 1256.14 461.77 1254.11 464.19 1252.76C466.61 1251.42 469.38 1250.81 472.14 1251.05C475.84 1251.35 479.27 1253.12 481.67 1255.94C484.07 1258.78 485.25 1262.44 484.95 1266.15Z" fill="#C6D7FF" fill-opacity="1.000000" fill-rule="nonzero"/>
	</g>
</svg>
