<svg xmlns="http://www.w3.org/2000/svg" >

<defs>

<symbol id="calendar" viewBox="0 0 40 40">
<path d="M11.25 5V8.75M28.75 5V8.75M5 31.25V12.5C5 11.5054 5.39509 10.5516 6.09835 9.84835C6.80161 9.14509 7.75544 8.75 8.75 8.75H31.25C32.2446 8.75 33.1984 9.14509 33.9016 9.84835C34.6049 10.5516 35 11.5054 35 12.5V31.25M5 31.25C5 32.2446 5.39509 33.1984 6.09835 33.9016C6.80161 34.6049 7.75544 35 8.75 35H31.25C32.2446 35 33.1984 34.6049 33.9016 33.9016C34.6049 33.1984 35 32.2446 35 31.25M5 31.25V18.75C5 17.7554 5.39509 16.8016 6.09835 16.0983C6.80161 15.3951 7.75544 15 8.75 15H31.25C32.2446 15 33.1984 15.3951 33.9016 16.0983C34.6049 16.8016 35 17.7554 35 18.75V31.25M20 21.25H20.0133V21.2633H20V21.25ZM20 25H20.0133V25.0133H20V25ZM20 28.75H20.0133V28.7633H20V28.75ZM16.25 25H16.2633V25.0133H16.25V25ZM16.25 28.75H16.2633V28.7633H16.25V28.75ZM12.5 25H12.5133V25.0133H12.5V25ZM12.5 28.75H12.5133V28.7633H12.5V28.75ZM23.75 21.25H23.7633V21.2633H23.75V21.25ZM23.75 25H23.7633V25.0133H23.75V25ZM23.75 28.75H23.7633V28.7633H23.75V28.75ZM27.5 21.25H27.5133V21.2633H27.5V21.25ZM27.5 25H27.5133V25.0133H27.5V25Z" stroke="#407BFF" stroke-width="2" stroke-linecap="round" stroke-linejoin="round"/>
</symbol>
  
<symbol id="stat" viewBox="0 0 40 40">
<path d="M6.25 5V23.75C6.25 24.7446 6.64509 25.6984 7.34835 26.4016C8.05161 27.1049 9.00544 27.5 10 27.5H13.75M6.25 5H3.75M6.25 5H33.75M13.75 27.5H26.25M13.75 27.5L12.0833 32.5M33.75 5H36.25M33.75 5V23.75C33.75 24.7446 33.3549 25.6984 32.6516 26.4016C31.9484 27.1049 30.9946 27.5 30 27.5H26.25M26.25 27.5L27.9167 32.5M12.0833 32.5H27.9167M12.0833 32.5L11.25 35M27.9167 32.5L28.75 35M15 18.75V21.25M20 15V21.25M25 11.25V21.25" stroke="#407BFF" stroke-width="2" stroke-linecap="round" stroke-linejoin="round"/>
</symbol>
  
<symbol id="tool" viewBox="0 0 40 40">
<path d="M19.0333 25.2833L28.75 35C29.5833 35.8067 30.7003 36.2535 31.8601 36.2441C33.0199 36.2347 34.1295 35.7698 34.9497 34.9497C35.7698 34.1295 36.2347 33.0199 36.2441 31.8601C36.2535 30.7003 35.8067 29.5833 35 28.75L25.205 18.955M19.0333 25.2833L23.1933 20.2333C23.7217 19.5933 24.4267 19.19 25.2067 18.9567C26.1233 18.6833 27.145 18.6433 28.1117 18.7233C29.4147 18.8352 30.7244 18.6044 31.9107 18.0539C33.097 17.5033 34.1187 16.6521 34.8744 15.5847C35.6301 14.5173 36.0936 13.2708 36.2188 11.969C36.3441 10.6672 36.1267 9.35521 35.5883 8.16333L30.1283 13.625C29.2148 13.4138 28.379 12.9503 27.716 12.2873C27.0531 11.6243 26.5896 10.7885 26.3783 9.875L31.8383 4.415C30.6464 3.87661 29.3345 3.65924 28.0327 3.78447C26.7308 3.90971 25.4844 4.37318 24.417 5.12891C23.3496 5.88465 22.4984 6.90636 21.9478 8.09266C21.3972 9.27896 21.1664 10.5886 21.2783 11.8917C21.43 13.685 21.16 15.665 19.7717 16.8083L19.6017 16.95M19.0333 25.2833L11.275 34.705C10.899 35.1633 10.4312 35.5379 9.90165 35.8045C9.37215 36.0711 8.79268 36.2239 8.20055 36.2531C7.60842 36.2822 7.01674 36.1871 6.46361 35.9737C5.91048 35.7604 5.40814 35.4336 4.98894 35.0144C4.56973 34.5952 4.24294 34.0928 4.0296 33.5397C3.81627 32.9866 3.72111 32.3949 3.75025 31.8028C3.7794 31.2107 3.9322 30.6312 4.19882 30.1017C4.46544 29.5722 4.83998 29.1043 5.29833 28.7283L16.6933 19.345L9.84833 12.5H7.49999L3.75 6.25L6.24999 3.75L12.5 7.5V9.84833L19.6 16.9483L16.6917 19.3433M30.625 30.625L26.25 26.25M8.11166 31.875H8.12499V31.8883H8.11166V31.875Z" stroke="#407BFF" stroke-width="2" stroke-linecap="round" stroke-linejoin="round"/>
</symbol>
  
<symbol id="dot" viewBox="0 0 8 8">
<circle cx="4" cy="4" r="4" fill="#407BFF"/>
</symbol>
  
<symbol id="logo" viewBox="0 0 40 48">
<g>
<path d="M15.8197 7.31804C16.493 6.7883 17.3439 7.93596 17.4336 8.99546C17.5233 10.055 16.5819 12.4385 13.9372 13.0564C11.2925 13.6743 10.9785 15.3074 11.0682 16.2786C11.158 17.2497 10.7097 18.309 9.76828 18.0886C8.82684 17.8682 8.7373 16.4112 9.58902 15.042C10.4407 13.6729 12.5919 12.4377 12.9509 11.6872C13.31 10.9367 13.0407 10.0541 13.7577 9.7451C14.4748 9.43614 15.4164 10.2306 15.3267 10.9817C15.3267 10.9817 16.0439 10.2756 15.9542 9.21607C15.8954 8.52055 15.4817 7.58435 15.8197 7.31804Z" fill="#9EBBFF"/>
<path d="M33.2122 13.7634C33.4611 13.0555 35.2294 13.4544 35.6326 14.4254C36.0359 15.3964 35.9016 16.1469 36.3049 16.8089C36.7082 17.4709 35.5879 18.5745 34.758 18.442C33.9281 18.3096 34.2424 16.8089 34.2424 16.1467C34.2424 15.4845 32.8089 14.9103 33.2122 13.7634Z" fill="#9EBBFF"/>
<path d="M27.6088 5.42756C28.2224 4.8876 29.5362 5.81734 29.8949 6.5677C30.2536 7.31806 29.9397 9.30443 28.8414 9.26034C27.7431 9.21626 28.18 7.66322 27.788 7.33974C27.0939 6.76627 27.1163 5.86143 27.6088 5.42756Z" fill="#9EBBFF"/>
<path d="M20.0418 0.82937C20.4769 1.50284 20.1532 2.41843 19.0476 2.62453C17.942 2.83062 17.7327 1.91754 17.1348 2.12417C16.537 2.3308 15.8791 2.47721 15.6108 2.00643C15.3426 1.53564 15.6407 0.82937 16.836 0.82937C18.0313 0.82937 19.243 -0.406647 20.0418 0.82937Z" fill="#9EBBFF"/>
<path d="M13.0858 7.26379C13.6056 7.26379 14.027 6.81672 14.027 6.26523C14.027 5.71373 13.6056 5.26666 13.0858 5.26666C12.5659 5.26666 12.1445 5.71373 12.1445 6.26523C12.1445 6.81672 12.5659 7.26379 13.0858 7.26379Z" fill="#9EBBFF"/>
<path d="M9.0025 10.5698C8.66818 10.4039 7.57187 12.129 8.31894 12.3354C9.06602 12.5419 9.53665 10.8345 9.0025 10.5698Z" fill="#9EBBFF"/>
<path d="M6.07812 15.6901C6.07812 15.6901 7.54243 16.4847 7.00446 18.1179C6.46649 19.751 5.3012 19.5451 4.9425 19.0447C4.58379 18.5444 4.58397 17.8677 5.18163 17.396C5.77929 16.9243 6.07812 15.6901 6.07812 15.6901Z" fill="#9EBBFF"/>
<path d="M37.1569 24.4888C37.1569 24.4888 37.6052 25.1519 37.3812 26.3427C37.1571 27.5336 36.7988 29.8732 38.0534 30.5363C39.3081 31.1994 39.8016 28.859 39.3092 28.1528C38.8167 27.4465 39.5776 25.0178 37.1569 24.4888Z" fill="#9EBBFF"/>
<path d="M38.7485 35.1268C39.2808 35.1268 39.7123 34.6129 39.7123 33.9791C39.7123 33.3452 39.2808 32.8314 38.7485 32.8314C38.2162 32.8314 37.7847 33.3452 37.7847 33.9791C37.7847 34.6129 38.2162 35.1268 38.7485 35.1268Z" fill="#9EBBFF"/>
<path d="M0.938136 35.5682C1.76911 35.144 2.46213 35.833 2.55185 37.1131C2.64158 38.3932 3.85182 39.4966 3.22413 40.1588C2.59644 40.821 1.86702 38.0843 1.29666 37.8303C0.421645 37.4407 -0.272289 36.1861 0.938136 35.5682Z" fill="#9EBBFF"/>
<path d="M36.235 36.8481C35.4525 37.643 36.494 38.4656 34.6466 40.5558C33.8773 41.4253 35.2144 44.0287 31.5087 43.9989C31.5087 43.9989 29.3568 45.9407 27.205 46.2065C25.0531 46.4722 24.157 46.1179 22.095 47.2659C20.0331 48.414 15.4607 46.471 13.5778 45.6324C11.6949 44.7939 10.9784 44.7052 9.36508 44.7052C7.75172 44.7052 8.37905 42.233 7.21321 41.1735C6.04737 40.114 4.70282 39.6733 4.61274 38.7025C4.52265 37.7318 3.62689 37.2898 3.71679 35.7886C3.8067 34.2873 2.28215 33.8466 2.10344 31.9923C1.92472 30.1381 2.90948 29.7857 2.55095 28.7262C2.19243 27.6667 2.10344 26.7845 2.64086 25.725C2.70476 25.5966 2.779 25.4735 2.86289 25.3569C3.32351 24.7103 3.76557 24.7605 4.07531 23.6945C4.43402 22.458 3.44799 21.9288 4.52392 21.3994C5.59986 20.87 5.95856 22.458 5.33015 24.0476C4.70173 25.6372 3.89514 27.1375 4.9718 27.4022C6.04847 27.6669 5.77912 24.4008 7.21357 22.8995C8.64803 21.3983 8.02089 21.0463 9.90286 19.5451C11.7848 18.0438 11.9648 18.6626 12.5921 17.0729C13.2195 15.4831 14.9912 13.8069 16.7962 13.0119C18.6011 12.217 19.4074 11.865 19.1377 10.5399C18.8679 9.21483 20.3728 9.21573 20.4282 7.80301C20.4835 6.39029 19.227 5.4195 18.1516 5.77273C17.0762 6.12595 15.9998 6.12577 16.3585 4.97882C16.7172 3.83187 18.9751 3.91933 20.0423 4.44854C21.1095 4.97775 22.0068 3.65481 23.4414 4.97882C24.876 6.30283 26.758 6.74459 26.4894 9.83544C26.2208 12.9263 25.952 13.9838 27.1167 14.161C28.2815 14.3383 27.2965 12.7483 27.2965 11.5129C27.2965 10.2774 29.3585 10.3646 29.8959 11.3356C30.4333 12.3066 29.7172 13.9838 30.2546 14.6026C30.792 15.2214 31.7791 15.1318 32.0478 16.0143C32.3164 16.8967 31.869 20.5169 33.1237 21.3117C34.3783 22.1065 34.1097 19.37 35.1857 20.2085C36.2616 21.047 36.5302 22.5474 35.9029 24.0485C35.4843 25.052 35.4414 27.5567 35.6845 29.7131C35.8026 30.78 35.991 31.7628 36.237 32.435C36.9779 34.4644 37.0176 36.0531 36.235 36.8481Z" fill="#9EBBFF"/>
<path d="M21.3739 14.3469C23.728 13.6148 25.7037 17.665 24.8845 19.4053C24.0654 21.1456 23.715 26.5139 26.7572 25.8463C29.7994 25.1788 27.5762 20.0159 29.2141 20.1198C30.852 20.2238 30.1503 24.9481 31.2034 26.446C32.2566 27.9438 35.8903 38.1997 30.0363 41.7719C24.1824 45.3441 15.8985 45.2289 12.7266 42.5783C11.4505 41.512 10.5268 40.3966 9.84638 39.3151C9.52298 38.8013 9.32861 38.394 9.19612 38.0368C8.91094 37.269 8.96081 36.9984 8.67326 36.228C8.48498 35.7318 8.24268 35.2571 7.95057 34.8122C7.31815 33.8547 7.03133 33.9669 6.44004 33.1332C6.24258 32.8549 5.6158 31.9146 5.55793 30.6481C5.54283 30.3164 5.50042 29.3897 5.90099 29.2245C6.35414 29.0377 6.9407 30.0044 7.54255 29.8037C7.85812 29.6983 7.99534 29.3332 8.08161 29.1047C8.33639 28.4277 8.08161 28.009 7.95913 27.0056C7.86485 26.2297 7.75166 25.2967 8.21391 24.5094C8.28962 24.3804 8.50783 23.9589 9.23179 23.5657C11.7784 22.1829 14.0653 23.4505 15.7303 20.9153C17.3954 18.3802 17.4276 18.2137 18.9913 17.548C20.5549 16.8822 19.1505 15.0383 21.3739 14.3469Z" fill="#C6D7FF"/>
<path d="M20.4393 48C18.7776 48 16.4563 47.3289 13.4206 45.9767C11.5707 45.1524 10.9144 45.0834 9.36514 45.0834C8.13997 45.0834 7.87863 43.9828 7.6688 43.0986C7.52047 42.4739 7.36705 41.8278 6.95266 41.4515C6.56702 41.1009 6.16391 40.8242 5.77408 40.5554C4.98606 40.0131 4.3056 39.5449 4.2308 38.7361C4.20131 38.4155 4.05317 38.1508 3.88156 37.8441C3.61093 37.3603 3.27407 36.7588 3.3334 35.7664C3.3698 35.1501 3.07388 34.7499 2.69861 34.2431C2.28695 33.6875 1.82032 33.0569 1.72077 32.0284C1.61886 30.9741 1.86254 30.3617 2.05837 29.8691C2.21852 29.4668 2.31516 29.2239 2.18703 28.8454C1.86291 27.8881 1.65198 26.8268 2.2975 25.5553C2.5694 25.02 2.85603 24.7687 3.08643 24.5668C3.34832 24.3374 3.53741 24.1725 3.70521 23.5901C3.82969 23.1609 3.7598 22.8429 3.69119 22.5356C3.58873 22.0736 3.46134 21.4985 4.35091 21.0605C4.79806 20.8403 5.23557 20.8766 5.55205 21.1598C6.12114 21.6705 6.17829 22.9424 5.688 24.1842C5.60192 24.4019 5.51256 24.618 5.42502 24.8293C5.0847 25.6537 4.69888 26.5856 4.86668 26.9117C4.87978 26.9372 4.91054 26.9967 5.06468 27.0347C5.07385 27.0376 5.08346 27.0388 5.09307 27.0384C5.26633 26.9784 5.47525 26.154 5.60046 25.6614C5.8507 24.6757 6.16209 23.4471 6.93337 22.6401C7.51884 22.0273 7.73723 21.6231 7.94815 21.232C8.24862 20.6765 8.53216 20.1503 9.66087 19.2507C10.3796 18.6772 10.8578 18.4037 11.2078 18.2035C11.7436 17.8965 11.8877 17.8141 12.2348 16.9354C12.8899 15.275 14.7013 13.5197 16.639 12.6665L16.6473 12.6629C18.526 11.8353 18.9619 11.6023 18.7612 10.6138C18.581 9.72668 19.0524 9.26611 19.4316 8.89621C19.7492 8.58618 20.0235 8.31844 20.044 7.78851C20.0664 7.20912 19.8184 6.67006 19.3803 6.3464C19.0354 6.09174 18.6318 6.01325 18.2727 6.13135C17.5839 6.35769 16.6606 6.5292 16.1751 6.06217C15.9798 5.87418 15.7893 5.51415 15.9914 4.8672C16.1212 4.45196 16.441 4.12706 16.9161 3.92759C17.8964 3.51541 19.3912 3.70268 20.2149 4.11093C20.5103 4.25752 20.7895 4.20591 21.2204 4.10967C21.8809 3.96218 22.7026 3.77867 23.7033 4.7025C24.0073 4.98297 24.3427 5.22956 24.667 5.46791C25.8625 6.34604 27.0987 7.255 26.8714 9.8661C26.8378 10.2525 26.8041 10.6073 26.7733 10.9328C26.5415 13.3768 26.5866 13.6969 27.175 13.786C27.2163 13.793 27.2583 13.7959 27.3002 13.7946C27.3253 13.6353 27.2183 13.2077 27.1457 12.9165C27.0365 12.4783 26.912 11.9817 26.912 11.5104C26.912 10.8975 27.2942 10.4351 27.9332 10.2751C28.6988 10.0828 29.7957 10.3647 30.2326 11.1532C30.5584 11.7414 30.5044 12.488 30.4565 13.1467C30.4217 13.6249 30.3824 14.167 30.5458 14.3546C30.7127 14.5466 30.9624 14.6593 31.2269 14.7788C31.6636 14.9759 32.2071 15.2222 32.4151 15.9044C32.5124 16.2245 32.5274 16.7587 32.5461 17.4351C32.5807 18.6756 32.6329 20.5503 33.3307 20.9921C33.4581 21.0729 33.5309 21.0833 33.5542 21.0766C33.6568 21.0471 33.8026 20.7342 33.8898 20.5471C34.0568 20.1886 34.2465 19.7815 34.6518 19.6858C34.8978 19.6275 35.1577 19.7037 35.4234 19.9102C36.6245 20.8471 36.9521 22.5266 36.2573 24.1906C35.6809 25.5691 35.8807 30.347 36.5969 32.3055C37.4198 34.5558 37.3902 36.2174 36.5115 37.1105C36.3079 37.3174 36.2857 37.5047 36.2551 37.9072C36.206 38.556 36.1384 39.4441 34.9368 40.8035C34.7866 40.9735 34.7508 41.3391 34.7127 41.7262C34.6099 42.7726 34.4554 44.3447 31.6553 44.376C31.1693 44.79 29.2395 46.336 27.254 46.5803C26.6434 46.6554 26.1286 46.6821 25.6741 46.7058C24.5261 46.7653 23.6966 46.8083 22.2851 47.5939C21.7993 47.8645 21.186 48 20.4393 48ZM4.91436 21.6736C4.8634 21.6736 4.79315 21.6892 4.69597 21.737C4.34036 21.9121 4.35018 21.9558 4.443 22.3748C4.51871 22.7171 4.62262 23.1859 4.445 23.7981C4.21515 24.5908 3.90121 24.8659 3.59765 25.132C3.38836 25.3153 3.19072 25.4884 2.98488 25.8938C2.49169 26.8651 2.59287 27.6521 2.91609 28.6067C3.13211 29.2451 2.95012 29.7026 2.77396 30.1451C2.59924 30.5845 2.40124 31.0823 2.48586 31.9569C2.56521 32.7793 2.94885 33.2972 3.31975 33.7981C3.72959 34.3517 4.15345 34.9241 4.10049 35.8112C4.05427 36.5855 4.29741 37.02 4.55547 37.4796C4.75075 37.8287 4.95276 38.1897 4.99698 38.668C5.0392 39.1269 5.55824 39.4839 6.21541 39.9361C6.60706 40.2049 7.05094 40.511 7.47479 40.8963C8.0619 41.43 8.25062 42.2251 8.41733 42.9266C8.65392 43.9219 8.80551 44.3273 9.36605 44.3273C10.9741 44.3273 11.7683 44.4101 13.738 45.2878C18.8483 47.5638 21.0013 47.4411 21.9078 46.9366C23.4764 46.0635 24.4286 46.0142 25.6341 45.9518C26.0756 45.9289 26.5759 45.9031 27.1592 45.8312C29.166 45.5841 31.23 43.7391 31.2505 43.7206C31.3213 43.6567 31.4139 43.6212 31.51 43.6212H31.5131C33.7538 43.6391 33.8444 42.7192 33.9491 41.6543C33.9991 41.1434 34.0466 40.6606 34.3582 40.3081C35.3925 39.1382 35.4465 38.425 35.49 37.8518C35.522 37.432 35.555 36.9977 35.9606 36.5854C36.6025 35.9329 36.5714 34.4667 35.8751 32.5624C35.0834 30.397 34.8969 25.4607 35.5475 23.9037C36.1091 22.5596 35.8735 21.2259 34.9469 20.5037C34.9112 20.474 34.8715 20.4491 34.829 20.4297C34.758 20.4978 34.6527 20.7238 34.5877 20.8632C34.4101 21.2446 34.2088 21.6766 33.77 21.8032C33.5059 21.8791 33.2186 21.8211 32.9157 21.6288C31.8768 20.9711 31.8225 19.0225 31.7788 17.4568C31.763 16.8858 31.7481 16.3457 31.6798 16.1225C31.5766 15.784 31.3313 15.6589 30.9067 15.4668C30.5941 15.3254 30.2396 15.1652 29.9629 14.8474C29.5942 14.4238 29.6412 13.7777 29.6909 13.0937C29.7331 12.5116 29.7768 11.9095 29.5589 11.5166C29.3174 11.0806 28.6015 10.8894 28.123 11.0095C27.6798 11.1208 27.6798 11.4154 27.6798 11.5122C27.6798 11.8917 27.7921 12.341 27.8913 12.7374C28.0566 13.398 28.1992 13.9684 27.87 14.3227C27.6893 14.5173 27.4161 14.5883 27.0583 14.5342C25.6809 14.3256 25.7904 13.1686 26.009 10.8634C26.0397 10.5408 26.0732 10.1869 26.1067 9.80248C26.2974 7.61038 25.3755 6.93278 24.208 6.0749C23.8666 5.824 23.5137 5.56468 23.1785 5.25519C22.4751 4.60573 21.9955 4.71254 21.3904 4.84802C20.9385 4.94892 20.4258 5.06307 19.8697 4.78727C19.2107 4.46039 17.9588 4.31272 17.2173 4.62419C16.9529 4.73512 16.7875 4.89211 16.726 5.09013C16.6601 5.30124 16.6548 5.46648 16.7123 5.52203C16.8139 5.6197 17.2485 5.67167 18.0307 5.41451C18.6321 5.21737 19.2924 5.33655 19.8418 5.74246C20.4814 6.21486 20.8439 6.99084 20.8119 7.81808C20.7798 8.64532 20.3323 9.08277 19.9729 9.43367C19.5965 9.80123 19.4198 9.99854 19.5148 10.4663C19.8424 12.0844 18.7586 12.563 16.9615 13.3535L16.9531 13.3573C15.2136 14.1234 13.5307 15.7439 12.9515 17.2103C12.5241 18.2924 12.2439 18.4863 11.5951 18.8578C11.2675 19.0456 10.8185 19.3028 10.1457 19.839C9.13856 20.6419 8.90197 21.0802 8.62789 21.5877C8.40404 22.0024 8.15016 22.4727 7.49427 23.1591C6.86021 23.8221 6.57557 24.944 6.34772 25.8454C6.21378 26.3734 6.09821 26.8293 5.93078 27.1687C5.60192 27.835 5.13184 27.8318 4.88105 27.7691C4.47266 27.6686 4.27684 27.4338 4.18457 27.2546C3.85826 26.6214 4.25609 25.6596 4.71653 24.5453C4.80261 24.3372 4.89052 24.1247 4.97496 23.9107C5.397 22.8422 5.2798 21.9367 5.03738 21.7193C5.0212 21.7037 5.00191 21.6916 4.98073 21.6837C4.95956 21.6759 4.93696 21.6724 4.91436 21.6736Z" fill="#407BFF"/>
<path d="M10.0136 18.4016C9.90858 18.4011 9.80395 18.3886 9.70186 18.3643C9.31768 18.2747 9.01703 18.0134 8.85524 17.6295C8.55277 16.9127 8.74004 15.8643 9.3437 14.8942C9.83508 14.1057 10.6997 13.3888 11.4632 12.7557C12.0248 12.2897 12.5551 11.8505 12.6905 11.567C12.8075 11.3222 12.8498 11.0464 12.8907 10.7797C12.9653 10.293 13.0498 9.74119 13.6427 9.48582C14.0484 9.31091 14.5405 9.38868 14.959 9.69406C15.1703 9.84732 15.343 10.0463 15.4639 10.2756C15.5935 10.0104 15.7028 9.65409 15.6677 9.2394C15.6495 9.02686 15.5926 8.77686 15.5374 8.53528C15.4022 7.94389 15.2746 7.38457 15.6402 7.0964C15.9072 6.88618 16.2275 6.84371 16.542 6.97704C17.1295 7.22597 17.6472 8.10213 17.7208 8.97148C17.8187 10.1283 16.8006 12.6785 14.004 13.3319C11.5183 13.9127 11.2775 15.4107 11.3553 16.253C11.4262 17.0211 11.1924 17.7559 10.7598 18.125C10.5541 18.3045 10.2884 18.4029 10.0136 18.4016ZM14.097 9.96072C14.0201 9.96009 13.9439 9.97516 13.8733 10.005C13.585 10.1292 13.5333 10.3851 13.46 10.8641C13.4152 11.1568 13.3644 11.4883 13.2116 11.8082C13.0225 12.2043 12.498 12.6394 11.8341 13.1899C11.1039 13.7953 10.2764 14.4813 9.83471 15.191C9.34097 15.9842 9.16135 16.877 9.38702 17.4132C9.47801 17.6304 9.62943 17.7652 9.83526 17.8134C10.0522 17.8643 10.2313 17.8263 10.3825 17.6973C10.6752 17.4476 10.8357 16.8881 10.7818 16.305C10.7055 15.4806 10.8546 13.4862 13.8707 12.7813C16.3311 12.2064 17.2307 10.0122 17.1466 9.01969C17.0862 8.30571 16.6592 7.64514 16.314 7.4989C16.1948 7.44837 16.1009 7.46055 16.0002 7.53977C15.9211 7.63331 16.0366 8.13958 16.0989 8.4118C16.1584 8.67238 16.2199 8.94173 16.2412 9.19334C16.3407 10.3702 15.5634 11.1503 15.5303 11.1826C15.4881 11.2242 15.4337 11.2518 15.3748 11.2616C15.3159 11.2714 15.2553 11.2629 15.2015 11.2373C15.1477 11.2117 15.1033 11.1703 15.0745 11.1187C15.0457 11.0672 15.0339 11.0081 15.0408 10.9496C15.0728 10.6808 14.9021 10.3598 14.6158 10.1509C14.446 10.026 14.2637 9.96126 14.097 9.96126V9.96072Z" fill="#407BFF"/>
<path d="M34.9042 18.7363C34.84 18.7364 34.7759 18.7314 34.7126 18.7214C33.7844 18.5732 33.8727 17.3804 33.9311 16.5912C33.9435 16.4234 33.9551 16.2648 33.9551 16.1462C33.9551 15.994 33.7562 15.7718 33.5636 15.5568C33.1738 15.1211 32.6397 14.5243 32.94 13.6698C33.0584 13.3333 33.3931 13.1322 33.8585 13.1204C34.5932 13.1025 35.5814 13.5525 35.8991 14.3175C36.103 14.8078 36.1772 15.2426 36.2427 15.6258C36.3101 16.02 36.3681 16.3605 36.5521 16.662C36.7578 16.9994 36.7101 17.4326 36.4216 17.8526C36.1039 18.3154 35.5022 18.7363 34.9042 18.7363ZM33.9071 13.6867H33.8743C33.7738 13.6896 33.5347 13.7114 33.4841 13.855C33.3069 14.3593 33.5717 14.7077 33.9957 15.1811C34.271 15.4887 34.5309 15.7792 34.5309 16.1455C34.5309 16.2847 34.5186 16.4532 34.5053 16.6317C34.4621 17.2148 34.3961 18.0958 34.8046 18.1611C35.1564 18.2166 35.6682 17.9361 35.9448 17.5338C36.0193 17.4263 36.1796 17.1521 36.0582 16.953C35.8183 16.5587 35.7488 16.1512 35.6749 15.7189C35.6114 15.3473 35.5457 14.9629 35.3655 14.5308C35.1563 14.0267 34.4379 13.6867 33.9071 13.6867Z" fill="#407BFF"/>
<path d="M28.8789 9.54456C28.8627 9.54456 28.8465 9.54456 28.8301 9.54348C27.8837 9.50549 27.7782 8.61158 27.7147 8.07879C27.6939 7.90442 27.6601 7.61284 27.6025 7.55621C27.2045 7.22772 26.9714 6.76446 26.9636 6.28597C26.9568 5.86572 27.1223 5.47575 27.4173 5.21608C27.6539 5.00837 27.9729 4.93776 28.3405 5.01142C29.0867 5.16106 29.8822 5.8745 30.1557 6.4469C30.4347 7.03094 30.3806 8.22771 29.8904 8.95585C29.6299 9.34151 29.2811 9.54456 28.8789 9.54456ZM28.069 5.55013C27.958 5.55013 27.8688 5.5797 27.8009 5.63973C27.6306 5.78955 27.5352 6.02217 27.5394 6.27772C27.5445 6.59618 27.6986 6.89636 27.9733 7.12324C28.2031 7.31284 28.2437 7.65316 28.2865 8.01356C28.3631 8.65639 28.4439 8.96122 28.8536 8.97771C29.071 8.98667 29.2527 8.87664 29.4105 8.64241C29.7744 8.10119 29.8387 7.11589 29.6347 6.68901C29.4254 6.2512 28.7793 5.67844 28.2257 5.56769C28.1742 5.55668 28.1217 5.5508 28.069 5.55013Z" fill="#407BFF"/>
<path d="M18.7311 2.93905C18.2204 2.93905 17.8978 2.71809 17.6499 2.54855C17.4159 2.38852 17.3418 2.35321 17.23 2.39192C16.7984 2.54067 15.785 2.88977 15.3606 2.14551C15.2754 1.99922 15.231 1.83334 15.2319 1.6647C15.2329 1.49606 15.2791 1.33067 15.3659 1.1853C15.5062 0.946409 15.8866 0.545873 16.836 0.545873C17.2 0.545873 17.5897 0.406805 17.9671 0.272397C18.7118 0.00716532 19.6385 -0.322583 20.2848 0.677235C20.5461 1.08153 20.5894 1.55537 20.404 1.97759C20.1961 2.45017 19.7213 2.78744 19.1011 2.90303C18.9792 2.92642 18.8553 2.93848 18.7311 2.93905ZM17.3068 1.81003C17.5798 1.81003 17.796 1.95805 17.9784 2.08279C18.2456 2.26558 18.4978 2.43834 18.9941 2.34587C19.43 2.26468 19.743 2.05393 19.8755 1.75232C19.9847 1.50573 19.9561 1.22472 19.7989 0.981714C19.419 0.392289 18.9761 0.516124 18.1633 0.806446C17.7393 0.95752 17.3005 1.11361 16.8364 1.11361C16.3528 1.11361 15.998 1.24426 15.8626 1.47203C15.8266 1.53202 15.8076 1.6004 15.8076 1.67006C15.8076 1.73972 15.8266 1.80811 15.8626 1.86809C15.9929 2.09623 16.3561 2.093 17.0406 1.85716C17.126 1.82673 17.216 1.8108 17.3068 1.81003Z" fill="#407BFF"/>
<path d="M13.0858 7.5473C12.4079 7.5473 11.8564 6.97222 11.8564 6.26523C11.8564 5.55824 12.4079 4.98315 13.0858 4.98315C13.7637 4.98315 14.315 5.55824 14.315 6.26523C14.315 6.97222 13.7635 7.5473 13.0858 7.5473ZM13.0858 5.55018C12.7255 5.55018 12.4323 5.87097 12.4323 6.26523C12.4323 6.65949 12.7255 6.98028 13.0858 6.98028C13.4461 6.98028 13.7391 6.65949 13.7391 6.26523C13.7391 5.87097 13.4461 5.55018 13.0858 5.55018Z" fill="#407BFF"/>
<path d="M8.44796 12.6371C8.37816 12.6368 8.30872 12.6272 8.24158 12.6084C8.00154 12.5422 7.83702 12.3641 7.79024 12.1198C7.68414 11.5654 8.20882 10.6996 8.60193 10.4087C8.83852 10.2329 9.02051 10.2614 9.13225 10.3166C9.59214 10.5448 9.60324 11.2473 9.37648 11.8236C9.17283 12.3419 8.82832 12.6371 8.44796 12.6371ZM8.91422 10.8847C8.70293 11.0629 8.3344 11.6433 8.35205 11.9799C8.35587 12.0516 8.37025 12.0552 8.39682 12.0625C8.56316 12.1087 8.74261 11.8645 8.83961 11.6188C8.96846 11.2912 8.95827 11.0075 8.91422 10.8847Z" fill="#407BFF"/>
<path d="M5.69405 19.6885C5.30259 19.6885 4.92168 19.5078 4.70711 19.2083C4.22138 18.5307 4.34313 17.6947 5.00157 17.1756C5.42689 16.8404 5.72062 15.9421 5.79779 15.6243C5.80814 15.5819 5.82828 15.5424 5.85663 15.509C5.88499 15.4755 5.9208 15.4489 5.96129 15.4312C6.00178 15.4136 6.04585 15.4054 6.09009 15.4072C6.13433 15.4091 6.17754 15.4209 6.21637 15.4419C6.79492 15.7557 7.76129 16.7374 7.27774 18.2053C6.89792 19.3587 6.23821 19.6211 5.87877 19.6748C5.81764 19.684 5.75589 19.6885 5.69405 19.6885ZM6.23766 16.158C6.08934 16.5937 5.80088 17.2707 5.36119 17.6179C4.84743 18.0227 4.94115 18.5512 5.17756 18.8809C5.27875 19.0221 5.51479 19.1553 5.79287 19.1139C6.1867 19.0551 6.51956 18.6704 6.73031 18.0302C7.04352 17.0806 6.57726 16.4621 6.23766 16.1584V16.158Z" fill="#407BFF"/>
<path d="M38.4782 30.9357C38.2962 30.9357 38.1075 30.8863 37.9175 30.7861C36.5599 30.0692 36.7997 27.8777 37.0986 26.2911C37.296 25.2418 36.9218 24.6517 36.918 24.6461C36.8862 24.5991 36.8693 24.5437 36.8697 24.4871C36.87 24.4305 36.8876 24.3753 36.92 24.3286C36.9525 24.282 36.9984 24.2459 37.0519 24.2252C37.1053 24.2044 37.1639 24.1998 37.2199 24.2121C39.1252 24.6289 39.2739 26.1366 39.3722 27.1345C39.4086 27.4985 39.4421 27.8424 39.5465 27.9918C39.9706 28.5993 39.8144 29.9504 39.2479 30.5735C39.0293 30.8133 38.7634 30.9357 38.4782 30.9357ZM37.6434 24.9461C37.7297 25.294 37.7794 25.7825 37.6642 26.3945C37.2538 28.5766 37.4305 29.8861 38.1894 30.2863C38.4442 30.4212 38.6388 30.3938 38.8184 30.1956C39.2293 29.7434 39.3214 28.6723 39.0713 28.3139C38.8828 28.0436 38.8437 27.6479 38.7984 27.1899C38.7152 26.344 38.6222 25.4011 37.6434 24.9461Z" fill="#407BFF"/>
<path d="M38.7481 35.4103C38.058 35.4103 37.4966 34.7683 37.4966 33.9791C37.4966 33.1898 38.058 32.5479 38.7481 32.5479C39.4382 32.5479 39.9999 33.19 39.9999 33.9791C39.9999 34.7682 39.4379 35.4103 38.7481 35.4103ZM38.7481 33.1149C38.3754 33.1149 38.0724 33.5026 38.0724 33.9791C38.0724 34.4556 38.3754 34.8432 38.7481 34.8432C39.1209 34.8432 39.4241 34.4556 39.4241 33.9791C39.4241 33.5026 39.1209 33.1149 38.7481 33.1149Z" fill="#407BFF"/>
<path d="M3.01989 40.5454C2.99443 40.5453 2.96901 40.5435 2.94381 40.54C2.48884 40.4746 2.16525 39.8339 1.79072 39.0923C1.61455 38.7432 1.31972 38.1594 1.1774 38.0888C0.512772 37.7925 0.0186651 37.1296 0.000465975 36.5126C-0.0131834 36.0131 0.273453 35.5882 0.804686 35.3165C1.20106 35.114 1.61036 35.1081 1.95669 35.2997C2.45644 35.5762 2.77784 36.23 2.83826 37.0936C2.87265 37.5852 3.09305 38.0549 3.30634 38.5094C3.61154 39.1597 3.92711 39.8321 3.43373 40.3524C3.2896 40.5051 3.13873 40.5454 3.01989 40.5454ZM1.41527 35.7268C1.30716 35.7268 1.19221 35.7578 1.07039 35.8198C0.735165 35.9911 0.569007 36.2189 0.576469 36.4972C0.587388 36.8954 0.955739 37.3674 1.41509 37.5725C1.72338 37.7097 1.95451 38.1438 2.30684 38.8404C2.49066 39.2042 2.82625 39.869 3.00951 39.9707L3.01406 39.9658C3.23245 39.7361 3.06866 39.3531 2.78475 38.7472C2.56054 38.2696 2.30666 37.7284 2.26499 37.1328C2.21876 36.4732 1.99855 35.9728 1.67588 35.7943C1.59649 35.7498 1.50664 35.7265 1.41527 35.7268Z" fill="#407BFF"/>
<path d="M22.771 32.5004C23.0011 33.6277 22.2664 34.814 21.203 35.2603C19.7145 35.9275 17.8473 35.1422 17.3976 33.5787C17.294 33.2218 17.2722 32.8477 17.343 32.5001C17.3507 32.4628 17.3712 32.4293 17.4009 32.4052C17.4307 32.381 17.468 32.3675 17.5066 32.3671C17.5452 32.3667 17.5827 32.3793 17.613 32.4028C17.6433 32.4264 17.6645 32.4594 17.6731 32.4965C17.917 33.6434 18.8852 34.5013 20.041 34.4895C21.1888 34.4807 22.1297 33.6343 22.377 32.5003C22.4182 32.2909 22.7301 32.2926 22.7703 32.5003L22.771 32.5004Z" fill="#407BFF"/>
<g opacity="0.5">
<path d="M9.889 34.2256C10.9266 34.0301 11.5618 32.8121 11.3079 31.5051C11.054 30.1981 10.007 29.297 8.96948 29.4924C7.93193 29.6879 7.29666 30.9059 7.55058 32.2129C7.80449 33.5199 8.85144 34.421 9.889 34.2256Z" fill="white"/>
</g>
<g opacity="0.5">
<path d="M9.94532 28.1985C11.0178 28.5271 12.0954 25.0687 13.9959 24.2861C15.8964 23.5035 17.1493 21.0415 17.7322 19.449C18.3151 17.8566 20.7076 16.8168 20.2022 15.7035C19.6968 14.5903 17.508 15.486 16.2184 17.1815C14.9288 18.877 15.5041 20.646 13.5588 21.3945C11.6134 22.1431 7.72538 27.518 9.94532 28.1985Z" fill="white"/>
</g>
<g opacity="0.2">
<path d="M35.2567 36.7277C34.5215 37.4454 35.5002 38.188 33.7644 40.0751C33.0413 40.8603 34.298 43.2113 30.8161 43.1837C30.8161 43.1837 28.7938 44.937 26.7714 45.1767C24.7489 45.4165 23.9066 45.0968 21.9688 46.1334C20.0309 47.1699 15.7334 45.4165 13.9635 44.6586C12.1937 43.9008 11.5207 43.8215 10.0043 43.8215C8.48796 43.8215 9.07761 41.5895 7.98184 40.633C6.88607 39.6766 5.62232 39.2785 5.53788 38.402C5.45343 37.5255 4.61118 37.1266 4.69562 35.7712C4.78007 34.4158 3.34725 34.018 3.17927 32.3438C3.01129 30.6696 3.9369 30.3517 3.59985 29.3951C3.2628 28.4384 3.17927 27.6419 3.68448 26.6854C3.74476 26.5692 3.81458 26.458 3.89322 26.353C3.91452 26.8953 3.94509 27.4377 4.13345 27.7739C4.328 28.1216 4.5857 28.4424 4.70472 28.8191C5.01029 29.7868 4.32691 30.7707 4.22718 31.7761C4.04191 33.6361 5.78739 35.0753 6.98089 36.5637C8.04299 37.8881 8.80463 39.5171 10.3046 40.3841C11.9738 41.3493 14.1388 41.1009 15.9667 40.4438C17.7946 39.7866 19.4637 38.7592 21.3262 38.1936C23.4811 37.5366 25.7926 37.5259 28.0535 37.6381C29.6818 37.7189 31.5412 37.7814 32.6737 36.6728C33.3254 36.0352 33.586 35.1325 33.7644 34.2617C34.1065 32.5902 34.2349 30.8831 34.1466 29.1802C34.344 29.5483 34.5412 29.9166 34.7382 30.2852C34.8491 31.2485 35.0263 32.1357 35.2574 32.7425C35.9543 34.5757 35.9911 36.0101 35.2567 36.7277Z" fill="#407BFF"/>
</g>
<path d="M25.4128 24.9298C26.6436 24.8064 27.7801 26.1332 27.9512 27.8934C28.1223 29.6537 27.2629 31.1809 26.0323 31.3046C24.8017 31.4282 23.6649 30.1011 23.4939 28.3409C23.3228 26.5807 24.182 25.0537 25.4128 24.9298Z" fill="#407BFF"/>
<path d="M25.4993 25.6673C25.8915 25.8286 26.0604 26.4277 25.8766 27.0054C25.6928 27.5832 25.2256 27.921 24.8334 27.7597C24.4412 27.5985 24.2723 26.9993 24.4562 26.4216C24.64 25.8438 25.1071 25.506 25.4993 25.6673Z" fill="white"/>
<path d="M26.819 29.4515C27.0046 29.587 27.0272 29.9174 26.8694 30.1893C26.7116 30.4612 26.4326 30.5725 26.2475 30.4372C26.0625 30.3019 26.0393 29.9712 26.1971 29.6993C26.3549 29.4275 26.6334 29.3164 26.819 29.4515Z" fill="#8BAEFF"/>
<path d="M14.8575 24.9298C13.6267 24.8064 12.4901 26.1332 12.3191 27.8934C12.148 29.6537 13.0072 31.1809 14.238 31.3046C15.4688 31.4282 16.6053 30.1011 16.7764 28.3409C16.9475 26.5807 16.0885 25.0537 14.8575 24.9298Z" fill="#407BFF"/>
<path d="M14.7709 25.6673C14.3787 25.8286 14.2098 26.4277 14.3937 27.0054C14.5775 27.5832 15.0446 27.921 15.4368 27.7597C15.829 27.5985 15.9979 26.9993 15.8141 26.4216C15.6303 25.8438 15.1631 25.506 14.7709 25.6673Z" fill="white"/>
<path d="M13.4513 29.4515C13.2657 29.587 13.2431 29.9174 13.4009 30.1893C13.5587 30.4612 13.8377 30.5725 14.0228 30.4372C14.2079 30.3019 14.231 29.9712 14.0732 29.6993C13.9154 29.4275 13.637 29.3164 13.4513 29.4515Z" fill="#8BAEFF"/>
</g>
</symbol>
  
<symbol id="signin" viewBox="0 0 28 28">
<circle cx="14" cy="14" r="13.5" stroke="#2F2F2F" fill="white"/>
<path d="M17.5005 8.2564C17.5005 9.20846 17.1317 10.1215 16.4752 10.7947C15.8187 11.4679 14.9284 11.8461 14 11.8461C13.0716 11.8461 12.1813 11.4679 11.5248 10.7947C10.8683 10.1215 10.4995 9.20846 10.4995 8.2564C10.4995 7.30434 10.8683 6.39127 11.5248 5.71807C12.1813 5.04486 13.0716 4.66666 14 4.66666C14.9284 4.66666 15.8187 5.04486 16.4752 5.71807C17.1317 6.39127 17.5005 7.30434 17.5005 8.2564ZM7 21.7711C7.03 19.8875 7.78069 18.0915 9.09018 16.7703C10.3997 15.4492 12.163 14.7088 14 14.7088C15.837 14.7088 17.6003 15.4492 18.9098 16.7703C20.2193 18.0915 20.97 19.8875 21 21.7711C18.8039 22.8037 16.4159 23.3367 14 23.3333C11.5021 23.3333 9.13108 22.7743 7 21.7711Z" stroke="#2F2F2F" fill="white" stroke-linecap="round" stroke-linejoin="round"/>
</symbol>
  
<symbol id="logout" viewBox="0 0 24 24">
<path d="M15.75 9V5.25C15.75 4.65326 15.5129 4.08097 15.091 3.65901C14.669 3.23705 14.0967 3 13.5 3H7.5C6.90326 3 6.33097 3.23705 5.90901 3.65901C5.48705 4.08097 5.25 4.65326 5.25 5.25V18.75C5.25 19.3467 5.48705 19.919 5.90901 20.341C6.33097 20.7629 6.90326 21 7.5 21H13.5C14.0967 21 14.669 20.7629 15.091 20.341C15.5129 19.919 15.75 19.3467 15.75 18.75V15M18.75 15L21.75 12M21.75 12L18.75 9M21.75 12H9" stroke="#407BFF" fill="white" stroke-linecap="round" stroke-linejoin="round"/>
</symbol>
  
<symbol id="arrowdown" viewBox="0 0 24 24">
<path fill-rule="evenodd" clip-rule="evenodd" d="M12.5298 16.28C12.3892 16.4205 12.1986 16.4994 11.9998 16.4994C11.8011 16.4994 11.6105 16.4205 11.4698 16.28L3.96985 8.78003C3.83737 8.63786 3.76524 8.44981 3.76867 8.25551C3.7721 8.06121 3.85081 7.87582 3.98822 7.73841C4.12564 7.601 4.31102 7.52228 4.50532 7.51886C4.69963 7.51543 4.88767 7.58755 5.02985 7.72003L11.9998 14.69L18.9698 7.72003C19.0385 7.64634 19.1213 7.58724 19.2133 7.54625C19.3053 7.50526 19.4046 7.48322 19.5053 7.48144C19.606 7.47966 19.7061 7.49819 19.7994 7.53591C19.8928 7.57363 19.9777 7.62977 20.0489 7.70099C20.1201 7.77221 20.1762 7.85705 20.214 7.95043C20.2517 8.04382 20.2702 8.14385 20.2684 8.24455C20.2667 8.34526 20.2446 8.44457 20.2036 8.53657C20.1626 8.62857 20.1035 8.71137 20.0298 8.78003L12.5298 16.28Z" fill="#407BFF"/>
</symbol>
    
<symbol id="settings" viewBox="0 0 24 24">
<path d="M9.59421 3.94C9.68421 3.398 10.1542 3 10.7042 3H13.2972C13.8472 3 14.3172 3.398 14.4072 3.94L14.6202 5.221C14.6832 5.595 14.9332 5.907 15.2652 6.091C15.3392 6.131 15.4122 6.174 15.4852 6.218C15.8092 6.414 16.2052 6.475 16.5602 6.342L17.7772 5.886C18.0266 5.79221 18.3012 5.78998 18.5521 5.87971C18.803 5.96945 19.0139 6.14531 19.1472 6.376L20.4432 8.623C20.5763 8.8537 20.6232 9.12413 20.5756 9.38617C20.5279 9.6482 20.3889 9.88485 20.1832 10.054L19.1802 10.881C18.8872 11.121 18.7422 11.494 18.7492 11.873C18.7508 11.958 18.7508 12.043 18.7492 12.128C18.7422 12.506 18.8872 12.878 19.1792 13.118L20.1842 13.946C20.6082 14.296 20.7182 14.9 20.4442 15.376L19.1462 17.623C19.0131 17.8536 18.8024 18.0296 18.5517 18.1195C18.301 18.2094 18.0266 18.2074 17.7772 18.114L16.5602 17.658C16.2052 17.525 15.8102 17.586 15.4842 17.782C15.4117 17.8261 15.3384 17.8688 15.2642 17.91C14.9332 18.093 14.6832 18.405 14.6202 18.779L14.4072 20.059C14.3172 20.602 13.8472 21 13.2972 21H10.7032C10.1532 21 9.68321 20.602 9.59321 20.06L9.38021 18.779C9.31821 18.405 9.06821 18.093 8.73621 17.909C8.66205 17.8681 8.58871 17.8258 8.51621 17.782C8.19121 17.586 7.79621 17.525 7.44021 17.658L6.22321 18.114C5.97393 18.2075 5.69957 18.2096 5.4489 18.1199C5.19824 18.0302 4.98752 17.8545 4.85421 17.624L3.55721 15.377C3.42415 15.1463 3.37725 14.8759 3.42486 14.6138C3.47247 14.3518 3.6115 14.1152 3.81721 13.946L4.82121 13.119C5.11321 12.879 5.25821 12.506 5.25121 12.127C5.24964 12.042 5.24964 11.957 5.25121 11.872C5.25821 11.494 5.11321 11.122 4.82121 10.882L3.81721 10.054C3.61175 9.88489 3.47288 9.64843 3.42528 9.38662C3.37768 9.12481 3.42442 8.8546 3.55721 8.624L4.85421 6.377C4.98739 6.14614 5.19822 5.97006 5.44912 5.88014C5.70002 5.79021 5.97469 5.79229 6.22421 5.886L7.44021 6.342C7.79621 6.475 8.19121 6.414 8.51621 6.218C8.58821 6.174 8.66221 6.131 8.73621 6.09C9.06821 5.907 9.31821 5.595 9.38021 5.221L9.59421 3.94Z" stroke="#407BFF" fill="white" stroke-linecap="round" stroke-linejoin="round"/>
<path d="M15 12C15 12.7956 14.6839 13.5587 14.1213 14.1213C13.5587 14.6839 12.7956 15 12 15C11.2044 15 10.4413 14.6839 9.87868 14.1213C9.31607 13.5587 9 12.7956 9 12C9 11.2044 9.31607 10.4413 9.87868 9.87868C10.4413 9.31607 11.2044 9 12 9C12.7956 9 13.5587 9.31607 14.1213 9.87868C14.6839 10.4413 15 11.2044 15 12Z" stroke="#407BFF" fill="white" stroke-linecap="round" stroke-linejoin="round"/>
</symbol>
  
<symbol id="eye" viewBox="0 0 24 24">
<path d="M2.03613 12.322C1.96712 12.1146 1.96712 11.8904 2.03613 11.683C3.42313 7.51 7.36013 4.5 12.0001 4.5C16.6381 4.5 20.5731 7.507 21.9631 11.678C22.0331 11.885 22.0331 12.109 21.9631 12.317C20.5771 16.49 16.6401 19.5 12.0001 19.5C7.36213 19.5 3.42613 16.493 2.03613 12.322Z" stroke-linecap="round" stroke-linejoin="round"/>
<path d="M15 12C15 12.7956 14.6839 13.5587 14.1213 14.1213C13.5587 14.6839 12.7956 15 12 15C11.2044 15 10.4413 14.6839 9.87868 14.1213C9.31607 13.5587 9 12.7956 9 12C9 11.2044 9.31607 10.4413 9.87868 9.87868C10.4413 9.31607 11.2044 9 12 9C12.7956 9 13.5587 9.31607 14.1213 9.87868C14.6839 10.4413 15 11.2044 15 12Z" stroke="#407BFF" fill="white" stroke-linecap="round" stroke-linejoin="round"/>
</symbol>
  
<symbol id="closedeye" viewBox="0 0 24 24">
<path d="M3.98008 8.223C3.04454 9.32718 2.3479 10.6132 1.93408 12C3.22608 16.338 7.24408 19.5 12.0001 19.5C12.9931 19.5 13.9531 19.362 14.8631 19.105M6.22808 6.228C7.9407 5.09781 9.94816 4.49682 12.0001 4.5C16.7561 4.5 20.7731 7.662 22.0651 11.998C21.357 14.3673 19.8371 16.4115 17.7721 17.772M6.22808 6.228L3.00008 3M6.22808 6.228L9.87808 9.878M17.7721 17.772L21.0001 21M17.7721 17.772L14.1221 14.122C14.4007 13.8434 14.6217 13.5127 14.7725 13.1486C14.9232 12.7846 15.0008 12.3945 15.0008 12.0005C15.0008 11.6065 14.9232 11.2164 14.7725 10.8524C14.6217 10.4883 14.4007 10.1576 14.1221 9.879C13.8435 9.6004 13.5127 9.3794 13.1487 9.22863C12.7847 9.07785 12.3946 9.00025 12.0006 9.00025C11.6066 9.00025 11.2164 9.07785 10.8524 9.22863C10.4884 9.3794 10.1577 9.6004 9.87908 9.879M14.1211 14.121L9.88008 9.88" stroke="#407BFF" fill="white" stroke-linecap="round" stroke-linejoin="round"/>
</symbol>
  
<symbol id="trash" viewBox="0 0 24 24">
<path d="M14.74 9.00003L14.394 18M9.606 18L9.26 9.00003M19.228 5.79003C19.57 5.84203 19.91 5.89703 20.25 5.95603M19.228 5.79003L18.16 19.673C18.1164 20.2383 17.8611 20.7662 17.445 21.1513C17.029 21.5364 16.4829 21.7502 15.916 21.75H8.084C7.5171 21.7502 6.97102 21.5364 6.55498 21.1513C6.13894 20.7662 5.88359 20.2383 5.84 19.673L4.772 5.79003M19.228 5.79003C18.0739 5.61555 16.9138 5.48313 15.75 5.39303M4.772 5.79003C4.43 5.84103 4.09 5.89603 3.75 5.95503M4.772 5.79003C5.92613 5.61555 7.08623 5.48313 8.25 5.39303M15.75 5.39303V4.47703C15.75 3.29703 14.84 2.31303 13.66 2.27603C12.5536 2.24067 11.4464 2.24067 10.34 2.27603C9.16 2.31303 8.25 3.29803 8.25 4.47703V5.39303M15.75 5.39303C13.2537 5.20011 10.7463 5.20011 8.25 5.39303" fill="white" stroke-linecap="round" stroke-linejoin="round"/>
</symbol>
   
<symbol id="pencil" viewBox="0 0 24 24">
<path d="M16.862 4.487L18.549 2.799C18.9007 2.44733 19.3777 2.24976 19.875 2.24976C20.3723 2.24976 20.8493 2.44733 21.201 2.799C21.5527 3.15068 21.7502 3.62766 21.7502 4.125C21.7502 4.62235 21.5527 5.09933 21.201 5.451L10.582 16.07C10.0533 16.5984 9.40137 16.9867 8.685 17.2L6 18L6.8 15.315C7.01328 14.5986 7.40163 13.9467 7.93 13.418L16.862 4.487ZM16.862 4.487L19.5 7.125M18 14V18.75C18 19.3467 17.7629 19.919 17.341 20.341C16.919 20.7629 16.3467 21 15.75 21H5.25C4.65326 21 4.08097 20.7629 3.65901 20.341C3.23705 19.919 3 19.3467 3 18.75V8.25C3 7.65327 3.23705 7.08097 3.65901 6.65901C4.08097 6.23706 4.65326 6 5.25 6H10" fill="white" stroke-linecap="round" stroke-linejoin="round"/>
 </symbol>

<!-- <symbol id="pencilNew" viewBox="0 0 16 16">
 <path
      d="M11.2413 2.99133L12.366 1.866C12.6005 1.63155 12.9184 1.49983 13.25 1.49983C13.5816 1.49983 13.8995 1.63155 14.134 1.866C14.3685 2.10045 14.5002 2.41843 14.5002 2.75C14.5002 3.08156 14.3685 3.39955 14.134 3.634L7.05467 10.7133C6.70222 11.0656 6.26758 11.3245 5.79 11.4667L4 12L4.53333 10.21C4.67552 9.73242 4.93442 9.29778 5.28667 8.94533L11.2413 2.99133ZM11.2413 2.99133L13 4.75M12 9.33333V12.5C12 12.8978 11.842 13.2794 11.5607 13.5607C11.2794 13.842 10.8978 14 10.5 14H3.5C3.10218 14 2.72064 13.842 2.43934 13.5607C2.15804 13.2794 2 12.8978 2 12.5V5.5C2 5.10217 2.15804 4.72064 2.43934 4.43934C2.72064 4.15803 3.10218 4 3.5 4H6.66667"
      stroke="#9EBBFF"
    />
 </symbol> -->

 <symbol id="plus" viewBox="0 0 24 24">
<path d="M12 6V18M18 12H6" stroke="#407BFF" stroke-linecap="round" stroke-linejoin="round"/>
 </symbol>

 <symbol id="minus" viewBox="0 0 24 24">
<path fill-rule="evenodd" clip-rule="evenodd" d="M5.25 12C5.25 11.8011 5.32902 11.6103 5.46967 11.4697C5.61032 11.329 5.80109 11.25 6 11.25H18C18.1989 11.25 18.3897 11.329 18.5303 11.4697C18.671 11.6103 18.75 11.8011 18.75 12C18.75 12.1989 18.671 12.3897 18.5303 12.5303C18.3897 12.671 18.1989 12.75 18 12.75H6C5.80109 12.75 5.61032 12.671 5.46967 12.5303C5.32902 12.3897 5.25 12.1989 5.25 12Z" fill="#407BFF"/>
</symbol>
  
<symbol id="upload" viewBox="0 0 24 24">
<path d="M3 16.5V18.75C3 19.3467 3.23705 19.919 3.65901 20.341C4.08097 20.7629 4.65326 21 5.25 21H18.75C19.3467 21 19.919 20.7629 20.341 20.341C20.7629 19.919 21 19.3467 21 18.75V16.5M7.5 7.5L12 3M12 3L16.5 7.5M12 3V16.5" stroke="#407BFF" fill="white" stroke-linecap="round" stroke-linejoin="round"/>
</symbol>
  
<symbol id="pluscircle" viewBox="0 0 24 24">
<path d="M12 9V15M15 12H9M21 12C21 13.1819 20.7672 14.3522 20.3149 15.4442C19.8626 16.5361 19.1997 17.5282 18.364 18.364C17.5282 19.1997 16.5361 19.8626 15.4442 20.3149C14.3522 20.7672 13.1819 21 12 21C10.8181 21 9.64778 20.7672 8.55585 20.3149C7.46392 19.8626 6.47177 19.1997 5.63604 18.364C4.80031 17.5282 4.13738 16.5361 3.68508 15.4442C3.23279 14.3522 3 13.1819 3 12C3 9.61305 3.94821 7.32387 5.63604 5.63604C7.32387 3.94821 9.61305 3 12 3C14.3869 3 16.6761 3.94821 18.364 5.63604C20.0518 7.32387 21 9.61305 21 12Z" stroke="white" fill="#407BFF" stroke-width="2" stroke-linecap="round" stroke-linejoin="round"/>
</symbol>
  
<symbol id="arrowleft" viewBox="0 0 24 24">
<path fill-rule="evenodd" clip-rule="evenodd" d="M7.27983 7.71995C7.42028 7.86058 7.49917 8.0512 7.49917 8.24995C7.49917 8.4487 7.42028 8.63932 7.27983 8.77995L4.80983 11.25H20.9998C21.1987 11.25 21.3895 11.329 21.5302 11.4696C21.6708 11.6103 21.7498 11.801 21.7498 12C21.7498 12.1989 21.6708 12.3896 21.5302 12.5303C21.3895 12.6709 21.1987 12.75 20.9998 12.75H4.80983L7.27983 15.22C7.35352 15.2886 7.41262 15.3714 7.45361 15.4634C7.4946 15.5554 7.51664 15.6547 7.51842 15.7554C7.5202 15.8561 7.50167 15.9562 7.46395 16.0495C7.42623 16.1429 7.37009 16.2278 7.29887 16.299C7.22765 16.3702 7.14281 16.4264 7.04943 16.4641C6.95604 16.5018 6.85601 16.5203 6.75531 16.5185C6.6546 16.5168 6.55529 16.4947 6.46329 16.4537C6.37129 16.4127 6.28849 16.3536 6.21983 16.28L2.46983 12.53C2.32938 12.3893 2.25049 12.1987 2.25049 12C2.25049 11.8012 2.32938 11.6106 2.46983 11.47L6.21983 7.71995C6.36045 7.5795 6.55108 7.50061 6.74983 7.50061C6.94858 7.50061 7.1392 7.5795 7.27983 7.71995Z" fill="#2F2F2F"/>
</symbol>
  
<symbol id="cup" viewBox="0 0 36 36">
<path d="M6.26099 3.13043L8.39972 32.7888V32.8696H26.8122L28.9509 3.22275V3.13043H6.26099ZM26.0557 32.0387H9.16193L7.55788 9.82376H8.43954L9.89002 29.4017C9.89851 29.5048 9.94461 29.601 10.0193 29.6714C10.094 29.7418 10.1919 29.7815 10.2939 29.7826H10.328C10.3811 29.7789 10.4329 29.7646 10.4806 29.7406C10.5282 29.7165 10.5707 29.6832 10.6056 29.6424C10.6404 29.6017 10.667 29.5544 10.6838 29.5031C10.7006 29.4519 10.7073 29.3979 10.7034 29.344L9.25294 9.82376H27.6597L26.0557 32.0387ZM27.7166 8.99286H9.19037L8.87184 4.66528C8.86183 4.5597 8.81293 4.46184 8.7349 4.39125C8.65687 4.32065 8.55546 4.28251 8.45092 4.28445C8.34378 4.29473 8.24477 4.34679 8.17474 4.42968C8.1047 4.51256 8.06913 4.61978 8.0755 4.72875L8.39404 8.99863H7.501L7.13696 3.95556H28.0807L27.7166 8.99286Z" fill="#407BFF"/>
<path d="M12.7797 13.9321C13.0452 13.9321 13.3047 13.8522 13.5255 13.7026C13.7462 13.553 13.9183 13.3403 14.0199 13.0914C14.1215 12.8426 14.1481 12.5688 14.0963 12.3047C14.0445 12.0405 13.9166 11.7979 13.7289 11.6074C13.5411 11.417 13.3019 11.2873 13.0415 11.2348C12.7811 11.1822 12.5112 11.2092 12.2659 11.3122C12.0206 11.4153 11.811 11.5898 11.6635 11.8138C11.516 12.0377 11.4373 12.301 11.4373 12.5703C11.4373 12.9315 11.5787 13.2779 11.8304 13.5332C12.0822 13.7886 12.4236 13.9321 12.7797 13.9321ZM12.7797 12.0337C12.8843 12.0337 12.9866 12.0652 13.0735 12.1241C13.1605 12.1831 13.2283 12.2669 13.2684 12.365C13.3084 12.463 13.3189 12.5709 13.2985 12.675C13.2781 12.7791 13.2277 12.8747 13.1537 12.9498C13.0797 13.0248 12.9855 13.0759 12.8829 13.0966C12.7802 13.1173 12.6739 13.1067 12.5772 13.0661C12.4806 13.0255 12.3979 12.9567 12.3398 12.8685C12.2817 12.7802 12.2507 12.6765 12.2507 12.5703C12.2507 12.428 12.3064 12.2915 12.4056 12.1909C12.5048 12.0902 12.6394 12.0337 12.7797 12.0337Z" fill="#407BFF"/>
<path d="M12.7738 18.3577C12.7772 18.6265 12.8589 18.8883 13.0087 19.1101C13.1585 19.3319 13.3696 19.5037 13.6155 19.6039C13.8614 19.7042 14.1311 19.7284 14.3905 19.6734C14.6499 19.6185 14.8875 19.4868 15.0733 19.2952C15.2591 19.1035 15.3848 18.8603 15.4346 18.5962C15.4844 18.3322 15.456 18.0591 15.353 17.8114C15.2501 17.5637 15.0772 17.3524 14.856 17.2042C14.6349 17.056 14.3755 16.9776 14.1105 16.9787C13.9332 16.9794 13.7579 17.0158 13.5946 17.0856C13.4312 17.1555 13.2832 17.2575 13.1589 17.3857C13.0346 17.5139 12.9366 17.6658 12.8705 17.8326C12.8044 17.9995 12.7715 18.1779 12.7738 18.3577ZM14.6395 18.3577C14.6395 18.4639 14.6085 18.5676 14.5503 18.6559C14.4922 18.7441 14.4096 18.8129 14.3129 18.8535C14.2163 18.8941 14.1099 18.9047 14.0073 18.884C13.9047 18.8633 13.8104 18.8122 13.7364 18.7372C13.6625 18.6621 13.6121 18.5665 13.5917 18.4624C13.5713 18.3583 13.5817 18.2504 13.6218 18.1524C13.6618 18.0543 13.7296 17.9705 13.8166 17.9116C13.9036 17.8526 14.0059 17.8211 14.1105 17.8211C14.2508 17.8211 14.3854 17.8777 14.4846 17.9783C14.5838 18.0789 14.6395 18.2154 14.6395 18.3577Z" fill="#407BFF"/>
<path d="M22.3129 18.3924C22.5784 18.3924 22.8379 18.3125 23.0587 18.1629C23.2794 18.0132 23.4515 17.8006 23.5531 17.5517C23.6547 17.3029 23.6813 17.0291 23.6295 16.765C23.5777 16.5008 23.4498 16.2582 23.2621 16.0677C23.0743 15.8773 22.8351 15.7476 22.5747 15.6951C22.3143 15.6425 22.0444 15.6695 21.7991 15.7725C21.5539 15.8756 21.3442 16.0501 21.1967 16.2741C21.0492 16.498 20.9705 16.7613 20.9705 17.0306C20.9705 17.3918 21.1119 17.7382 21.3636 17.9935C21.6154 18.2489 21.9568 18.3924 22.3129 18.3924ZM22.3129 16.4998C22.4177 16.4998 22.5202 16.5314 22.6073 16.5906C22.6944 16.6499 22.7622 16.734 22.8021 16.8324C22.842 16.9308 22.8521 17.039 22.8312 17.1432C22.8104 17.2475 22.7594 17.3431 22.6849 17.4179C22.6103 17.4927 22.5155 17.5434 22.4125 17.5634C22.3095 17.5835 22.203 17.572 22.1064 17.5305C22.0099 17.489 21.9277 17.4193 21.8702 17.3303C21.8128 17.2413 21.7827 17.137 21.7839 17.0306C21.7854 16.8893 21.8418 16.7543 21.9408 16.6549C22.0398 16.5555 22.1735 16.4998 22.3129 16.4998Z" fill="#407BFF"/>
<path d="M17.6373 15.8247C17.9028 15.8247 18.1624 15.7448 18.3831 15.5952C18.6039 15.4455 18.7759 15.2329 18.8775 14.984C18.9791 14.7352 19.0057 14.4614 18.9539 14.1972C18.9021 13.9331 18.7743 13.6905 18.5865 13.5C18.3988 13.3096 18.1596 13.1799 17.8992 13.1273C17.6388 13.0748 17.3689 13.1018 17.1236 13.2048C16.8783 13.3079 16.6687 13.4824 16.5212 13.7064C16.3737 13.9303 16.2949 14.1936 16.2949 14.4629C16.2949 14.8241 16.4364 15.1704 16.6881 15.4258C16.9399 15.6812 17.2813 15.8247 17.6373 15.8247ZM17.6373 13.9263C17.7419 13.9263 17.8442 13.9578 17.9312 14.0167C18.0182 14.0757 18.086 14.1595 18.126 14.2576C18.1661 14.3556 18.1766 14.4635 18.1562 14.5676C18.1357 14.6717 18.0854 14.7673 18.0114 14.8424C17.9374 14.9174 17.8431 14.9685 17.7405 14.9892C17.6379 15.0099 17.5315 14.9993 17.4349 14.9587C17.3382 14.9181 17.2556 14.8493 17.1975 14.761C17.1394 14.6728 17.1083 14.569 17.1083 14.4629C17.1045 14.3901 17.1153 14.3172 17.1401 14.2487C17.165 14.1802 17.2033 14.1176 17.2528 14.0647C17.3024 14.0117 17.362 13.9696 17.4281 13.9409C17.4942 13.9121 17.5654 13.8973 17.6373 13.8974V13.9263Z" fill="#407BFF"/>
<path d="M15.0776 23.5451C15.0832 23.7663 15.153 23.9809 15.2782 24.1621C15.4035 24.3433 15.5786 24.483 15.7817 24.5638C15.9848 24.6446 16.2069 24.6628 16.4201 24.6161C16.6334 24.5695 16.8283 24.4602 16.9806 24.3017C17.1329 24.1433 17.2358 23.9428 17.2763 23.7253C17.3169 23.5079 17.2933 23.2832 17.2086 23.0792C17.1239 22.8753 16.9817 22.7013 16.8 22.5789C16.6183 22.4564 16.405 22.3911 16.1868 22.3911C15.8901 22.3986 15.608 22.5235 15.4007 22.7391C15.1935 22.9547 15.0775 23.2439 15.0776 23.5451ZM16.1868 23.245C16.2453 23.245 16.3025 23.2626 16.3512 23.2956C16.3998 23.3286 16.4377 23.3754 16.4601 23.4302C16.4825 23.4851 16.4883 23.5454 16.4769 23.6036C16.4655 23.6618 16.4373 23.7153 16.396 23.7572C16.3546 23.7992 16.3019 23.8278 16.2445 23.8394C16.1872 23.8509 16.1277 23.845 16.0736 23.8223C16.0196 23.7996 15.9734 23.7611 15.9409 23.7118C15.9084 23.6624 15.891 23.6044 15.891 23.5451C15.891 23.4655 15.9222 23.3892 15.9777 23.3329C16.0331 23.2766 16.1084 23.245 16.1868 23.245Z" fill="#407BFF"/>
<path d="M20.4414 22.2929C20.6691 22.301 20.894 22.2394 21.0868 22.1163C21.2797 21.9932 21.4317 21.8142 21.523 21.6024C21.6144 21.3907 21.641 21.1559 21.5994 20.9287C21.5577 20.7014 21.4497 20.4921 21.2894 20.3278C21.1292 20.1635 20.9239 20.0519 20.7003 20.0073C20.4767 19.9627 20.2451 19.9872 20.0354 20.0777C19.8258 20.1682 19.6477 20.3205 19.5244 20.5149C19.401 20.7092 19.338 20.9367 19.3436 21.1678C19.3507 21.4619 19.4683 21.7423 19.6723 21.9514C19.8764 22.1606 20.1515 22.2827 20.4414 22.2929ZM20.4414 20.8677C20.5199 20.8677 20.5951 20.8993 20.6506 20.9556C20.706 21.0119 20.7372 21.0882 20.7372 21.1678C20.7372 21.2474 20.706 21.3237 20.6506 21.3799C20.5951 21.4362 20.5199 21.4678 20.4414 21.4678C20.3624 21.4678 20.2866 21.4364 20.2302 21.3803C20.1738 21.3242 20.1414 21.2479 20.1399 21.1678C20.1399 21.1279 20.1478 21.0884 20.163 21.0516C20.1782 21.0148 20.2005 20.9815 20.2286 20.9535C20.2566 20.9256 20.2899 20.9036 20.3265 20.8889C20.363 20.8742 20.4021 20.867 20.4414 20.8677Z" fill="#407BFF"/>
<path d="M22.7851 12.98C23.0101 12.98 23.23 12.9123 23.4171 12.7855C23.6042 12.6587 23.75 12.4785 23.8361 12.2676C23.9222 12.0567 23.9448 11.8247 23.9009 11.6008C23.857 11.377 23.7486 11.1714 23.5895 11.01C23.4304 10.8486 23.2277 10.7387 23.007 10.6941C22.7863 10.6496 22.5576 10.6725 22.3497 10.7598C22.1419 10.8472 21.9642 10.9951 21.8392 11.1848C21.7142 11.3746 21.6475 11.5977 21.6475 11.826C21.6475 12.1321 21.7673 12.4256 21.9807 12.642C22.194 12.8584 22.4834 12.98 22.7851 12.98ZM22.7851 11.5548C22.8291 11.542 22.8754 11.5398 22.9205 11.5483C22.9655 11.5568 23.0079 11.5758 23.0445 11.6038C23.081 11.6317 23.1107 11.6679 23.1311 11.7095C23.1515 11.7511 23.1621 11.7969 23.1621 11.8433C23.1621 11.8897 23.1515 11.9355 23.1311 11.9771C23.1107 12.0187 23.081 12.0549 23.0445 12.0828C23.0079 12.1108 22.9655 12.1298 22.9205 12.1383C22.8754 12.1468 22.8291 12.1446 22.7851 12.1318C22.7411 12.1446 22.6947 12.1468 22.6497 12.1383C22.6047 12.1298 22.5623 12.1108 22.5257 12.0828C22.4892 12.0549 22.4595 12.0187 22.4391 11.9771C22.4187 11.9355 22.4081 11.8897 22.4081 11.8433C22.4081 11.7969 22.4187 11.7511 22.4391 11.7095C22.4595 11.6679 22.4892 11.6317 22.5257 11.6038C22.5623 11.5758 22.6047 11.5568 22.6497 11.5483C22.6947 11.5398 22.7411 11.542 22.7851 11.5548Z" fill="#407BFF"/>
<path d="M11.6646 30.5904C11.6136 30.6142 11.568 30.6485 11.5306 30.691C11.4931 30.7335 11.4647 30.7834 11.4471 30.8375C11.4295 30.8916 11.4231 30.9488 11.4282 31.0056C11.4333 31.0623 11.4499 31.1174 11.4769 31.1674C11.5119 31.2348 11.5642 31.2913 11.6283 31.3309C11.6924 31.3705 11.7659 31.3918 11.841 31.3924C11.904 31.3942 11.9665 31.3803 12.023 31.352C13.7609 30.4488 15.6845 29.9744 17.6372 29.9672C19.7037 29.9977 21.7414 30.4634 23.6211 31.3347C23.6955 31.3741 23.78 31.3894 23.8632 31.3785C23.9464 31.3675 24.0243 31.331 24.0863 31.2737C24.1484 31.2164 24.1916 31.1412 24.2101 31.0582C24.2286 30.9752 24.2216 30.8884 24.1899 30.8096C24.1499 30.7073 24.0724 30.6246 23.9738 30.5788C21.9837 29.6554 19.8254 29.164 17.6372 29.1363C15.5614 29.1381 13.5152 29.6363 11.6646 30.5904Z" fill="#407BFF"/>
</symbol>
  
<symbol id="modalclose" viewBox="0 0 24 24">
<path d="M6 18L18 6M6 6L18 18" stroke="#407BFF" stroke-width="1.5" stroke-linecap="round" stroke-linejoin="round"/>
</symbol>

<symbol id="arrowleftcalendar" viewBox="0 0 14 14">
<path fill-rule="evenodd" clip-rule="evenodd" d="M4.50344 7.30917C4.42151 7.22714 4.37549 7.11594 4.37549 7C4.37549 6.88407 4.42151 6.77287 4.50344 6.69084L8.87844 2.31584C8.91849 2.27285 8.96679 2.23838 9.02046 2.21446C9.07412 2.19055 9.13206 2.17769 9.1908 2.17666C9.24954 2.17562 9.30789 2.18643 9.36237 2.20843C9.41684 2.23044 9.46633 2.26319 9.50788 2.30473C9.54942 2.34628 9.58217 2.39576 9.60417 2.45024C9.62618 2.50471 9.63698 2.56306 9.63595 2.62181C9.63491 2.68055 9.62205 2.73848 9.59814 2.79215C9.57423 2.84582 9.53975 2.89412 9.49677 2.93417L5.43094 7L9.49677 11.0658C9.53975 11.1059 9.57423 11.1542 9.59814 11.2079C9.62205 11.2615 9.63491 11.3195 9.63595 11.3782C9.63698 11.4369 9.62618 11.4953 9.60417 11.5498C9.58217 11.6042 9.54942 11.6537 9.50788 11.6953C9.46633 11.7368 9.41684 11.7696 9.36237 11.7916C9.30789 11.8136 9.24954 11.8244 9.1908 11.8233C9.13206 11.8223 9.07412 11.8095 9.02046 11.7855C8.96679 11.7616 8.91849 11.7272 8.87844 11.6842L4.50344 7.30917Z" fill="#407BFF"/>
</symbol>

<symbol id="arrowrightcalendar" viewBox="0 0 14 14">
<path fill-rule="evenodd" clip-rule="evenodd" d="M9.49656 7.30917C9.57849 7.22714 9.62451 7.11594 9.62451 7C9.62451 6.88407 9.57849 6.77287 9.49656 6.69084L5.12156 2.31584C5.08151 2.27285 5.03321 2.23838 4.97954 2.21446C4.92588 2.19055 4.86794 2.17769 4.8092 2.17666C4.75046 2.17562 4.69211 2.18643 4.63763 2.20843C4.58316 2.23044 4.53367 2.26319 4.49212 2.30473C4.45058 2.34628 4.41783 2.39576 4.39583 2.45024C4.37382 2.50471 4.36302 2.56306 4.36405 2.62181C4.36509 2.68055 4.37795 2.73848 4.40186 2.79215C4.42577 2.84582 4.46025 2.89412 4.50323 2.93417L8.56906 7L4.50323 11.0658C4.46025 11.1059 4.42577 11.1542 4.40186 11.2079C4.37795 11.2615 4.36509 11.3195 4.36405 11.3782C4.36302 11.4369 4.37382 11.4953 4.39583 11.5498C4.41783 11.6042 4.45058 11.6537 4.49212 11.6953C4.53367 11.7368 4.58316 11.7696 4.63763 11.7916C4.69211 11.8136 4.75046 11.8244 4.8092 11.8233C4.86794 11.8223 4.92588 11.8095 4.97954 11.7855C5.03321 11.7616 5.08151 11.7272 5.12156 11.6842L9.49656 7.30917Z" fill="#407BFF"/>
</symbol>

</defs></svg>