<svg viewBox="0 0 1440 432" fill="none" xmlns="http://www.w3.org/2000/svg">
<path fill-rule="evenodd" clip-rule="evenodd" d="M0 144L50 150C100 156 200 168 300 210C400 252 500 324 600 360C700 396 800 396 900 402C1000 408 1100 420 1150 426L1200 432H1150C1100 432 1000 432 900 432C800 432 700 432 600 432C500 432 400 432 300 432C200 432 100 432 50 432H0V144Z" fill="#9EBBFF"/>
<path opacity="0.8" fill-rule="evenodd" clip-rule="evenodd" d="M1440 0H1400C1360 0 1280 0 1200 22C1120 43 1040 86 960 86C880 86 800 43 720 79C640 115 560 230 480 288C400 346 320 346 240 331C160 317 80 288 40 274L0 259V432H40C80 432 160 432 240 432C320 432 400 432 480 432C560 432 640 432 720 432C800 432 880 432 960 432C1040 432 1120 432 1200 432C1280 432 1360 432 1400 432H1440V0Z" fill="#ECF2FF"/>
</svg>
