<?xml version="1.0" encoding="iso-8859-1"?>
<!-- Uploaded to: SVG Repo, www.svgrepo.com, Generator: SVG Repo Mixer Tools -->
<svg height="800px" width="800px" version="1.1" id="Layer_1" xmlns="http://www.w3.org/2000/svg" xmlns:xlink="http://www.w3.org/1999/xlink" 
	 viewBox="0 0 511.988 511.988" xml:space="preserve">
<path style="fill:#CCD1D9;" d="M277.523,0h-42.67c-5.891,0-10.672,4.773-10.672,10.664v42.67c0,5.89,4.781,10.664,10.672,10.664
	h42.67c5.891,0,10.656-4.773,10.656-10.664V10.663C288.181,4.773,283.414,0,277.523,0z"/>
<path style="fill:#E6E9ED;" d="M319.992,42.663H191.995c-5.891,0-10.656,4.781-10.656,10.671v42.663
	c0,5.89,4.766,10.664,10.656,10.664h127.997c5.89,0,10.655-4.773,10.655-10.664V53.334
	C330.647,47.444,325.883,42.663,319.992,42.663z"/>
<path style="fill:#434A54;" d="M288.306,21.335h-63.998c-5.891,0-10.672-4.781-10.672-10.671C213.636,4.773,218.417,0,224.308,0
	h63.998c5.891,0,10.656,4.773,10.656,10.664C298.961,16.554,294.195,21.335,288.306,21.335z"/>
<g>
	<path style="fill:#CCD1D9;" d="M223.995,106.661c-5.891,0-10.656-4.773-10.656-10.664V85.334c0-5.891,4.766-10.672,10.656-10.672
		s10.672,4.781,10.672,10.672v10.664C234.667,101.888,229.885,106.661,223.995,106.661z"/>
	<path style="fill:#CCD1D9;" d="M255.993,106.661c-5.891,0-10.656-4.773-10.656-10.664V85.334c0-5.891,4.766-10.672,10.656-10.672
		c5.89,0,10.671,4.781,10.671,10.672v10.664C266.664,101.888,261.884,106.661,255.993,106.661z"/>
	<path style="fill:#CCD1D9;" d="M287.992,106.661c-5.891,0-10.656-4.773-10.656-10.664V85.334c0-5.891,4.766-10.672,10.656-10.672
		s10.672,4.781,10.672,10.672v10.664C298.664,101.888,293.884,106.661,287.992,106.661z"/>
</g>
<path style="fill:#5D9CEC;" d="M362.647,202.659v-85.326c0-17.648-14.344-31.999-31.999-31.999H181.339
	c-17.656,0-31.999,14.351-31.999,31.999v85.326c0,2.828,1.124,5.547,3.124,7.547l13.781,13.788l-13.781,13.789
	c-2,2-3.124,4.719-3.124,7.547v234.658c0,17.656,14.343,32,31.999,32h149.309c17.655,0,31.999-14.344,31.999-32V245.33
	c0-2.828-1.109-5.547-3.125-7.547l-13.782-13.789l13.781-13.789C361.538,208.206,362.647,205.487,362.647,202.659z"/>
<g>
	<path style="fill:#4A89DC;" d="M362.647,298.649h-42.654c-5.891,0-10.656,4.781-10.656,10.687c0,5.875,4.766,10.656,10.656,10.656
		h42.654V298.649z"/>
	<path style="fill:#4A89DC;" d="M362.647,362.648h-42.654c-5.891,0-10.656,4.78-10.656,10.687c0,5.875,4.766,10.656,10.656,10.656
		h42.654V362.648z"/>
	<path style="fill:#4A89DC;" d="M362.647,426.646h-42.654c-5.891,0-10.656,4.781-10.656,10.688c0,5.875,4.766,10.656,10.656,10.656
		h42.654V426.646z"/>
	<path style="fill:#4A89DC;" d="M149.34,447.99h42.655c5.89,0,10.671-4.781,10.671-10.656c0-5.906-4.781-10.688-10.671-10.688
		H149.34V447.99z"/>
	<path style="fill:#4A89DC;" d="M149.34,383.991h42.655c5.89,0,10.671-4.781,10.671-10.656c0-5.906-4.781-10.687-10.671-10.687
		H149.34V383.991z"/>
	<path style="fill:#4A89DC;" d="M149.34,319.992h42.655c5.89,0,10.671-4.781,10.671-10.656c0-5.905-4.781-10.687-10.671-10.687
		H149.34V319.992z"/>
</g>
<path style="opacity:0.2;fill:#FFFFFF;enable-background:new    ;" d="M362.647,202.659v-85.326
	c0-17.648-14.344-31.999-31.999-31.999h-21.312c17.624,0,31.999,14.351,31.999,31.999v85.326c0,2.828-1.125,5.547-3.125,7.547
	l-13.796,13.788l13.797,13.789c2,2,3.125,4.719,3.125,7.547v234.658c0,17.656-14.375,32-31.999,32h21.312
	c17.655,0,31.999-14.344,31.999-32V245.33c0-2.828-1.109-5.547-3.125-7.547l-13.782-13.789l13.781-13.789
	C361.538,208.206,362.647,205.487,362.647,202.659z"/>
</svg>