<svg width="768" height="800" viewBox="0 0 768 800" fill="none" xmlns="http://www.w3.org/2000/svg">
<path fill-rule="evenodd" clip-rule="evenodd" d="M-400 336L-319.917 345.667C-239.833 355.333 -79.6667 374.667 80.5 442.333C240.667 510 400.833 626 561 684C721.167 742 881.333 742 1041.5 751.667C1201.67 761.333 1361.83 780.667 1441.92 790.333L1522 800H1441.92C1361.83 800 1201.67 800 1041.5 800C881.333 800 721.167 800 561 800C400.833 800 240.667 800 80.5 800C-79.6667 800 -239.833 800 -319.917 800H-400V336Z" fill="#9EBBFF"/>
<path opacity="0.8" fill-rule="evenodd" clip-rule="evenodd" d="M1907 0H1842.92C1778.83 0 1650.67 0 1522.5 40.7407C1394.33 79.6296 1266.17 159.259 1138 159.259C1009.83 159.259 881.667 79.6296 753.5 146.296C625.333 212.963 497.167 425.926 369 533.333C240.833 640.741 112.667 640.741 -15.5 612.963C-143.667 587.037 -271.833 533.333 -335.917 507.407L-400 479.63V800H-335.917C-271.833 800 -143.667 800 -15.5 800C112.667 800 240.833 800 369 800C497.167 800 625.333 800 753.5 800C881.667 800 1009.83 800 1138 800C1266.17 800 1394.33 800 1522.5 800C1650.67 800 1778.83 800 1842.92 800H1907V0Z" fill="#ECF2FF"/>
</svg>
